<svg version="1.1" xmlns="http://www.w3.org/2000/svg" xmlns:xlink="http://www.w3.org/1999/xlink" width="932.8291015625" height="548"><defs/><g><g transform="translate(-46,-86) scale(1,1)"><rect fill="#C0C0C0" stroke="none" x="247" y="103" width="392" height="528" opacity="0.2"/></g><g transform="translate(-46,-86) scale(1,1)"><rect fill="#ffffff" stroke="none" x="240" y="96" width="392" height="528"/></g><g transform="translate(-46,-86) scale(1,1)"><path fill="none" stroke="#000000" d="M 240 96 L 632 96 L 632 624 L 240 624 L 240 96 Z Z" stroke-miterlimit="10"/></g><g transform="translate(-46,-86) scale(1,1)"><g><path fill="none" stroke="none"/><text fill="#000000" stroke="none" font-family="Arial" font-size="13px" font-style="normal" font-weight="bold" text-decoration="none" x="325.458740234375" y="115.5">Use Case Diagram for software on PC</text></g></g><g transform="translate(-46,-86) scale(1,1)"><path fill="#C0C0C0" stroke="none" d="M 303 194.5 C 303 174.8938896 363.8892672 159 439 159 C 514.1107328 159 575 174.8938896 575 194.5 C 575 214.1061104 514.1107328 230 439 230 C 363.8892672 230 303 214.1061104 303 194.5 Z" opacity="0.2"/></g><g transform="translate(-46,-86) scale(1,1)"><path fill="#ffffff" stroke="none" d="M 296 187.5 C 296 167.8938896 356.8892672 152 432 152 C 507.1107328 152 568 167.8938896 568 187.5 C 568 207.1061104 507.1107328 223 432 223 C 356.8892672 223 296 207.1061104 296 187.5 Z"/></g><g transform="translate(-46,-86) scale(1,1)"><path fill="none" stroke="#000000" d="M 296 187.5 C 296 167.8938896 356.8892672 152 432 152 C 507.1107328 152 568 167.8938896 568 187.5 C 568 207.1061104 507.1107328 223 432 223 C 356.8892672 223 296 207.1061104 296 187.5 Z" stroke-miterlimit="10"/></g><g transform="translate(-46,-86) scale(1,1)"><g><path fill="none" stroke="none"/><text fill="#000000" stroke="none" font-family="Arial" font-size="13px" font-style="normal" font-weight="bold" text-decoration="none" x="359.024169921875" y="181.5">Control Motor with Pause</text><text fill="#000000" stroke="none" font-family="Arial" font-size="13px" font-style="normal" font-weight="bold" text-decoration="none" x="370.570556640625" y="194.5">Resume and Change</text><text fill="#000000" stroke="none" font-family="Arial" font-size="13px" font-style="normal" font-weight="bold" text-decoration="none" x="407.431396484375" y="207.5">direction</text></g></g><g transform="translate(-46,-86) scale(1,1)"><path fill="#C0C0C0" stroke="none" d="M 271 249 C 271 234.6405952 346.2161536 223 439 223 C 531.7838464 223 607 234.6405952 607 249 C 607 263.3594048 531.7838464 275 439 275 C 346.2161536 275 271 263.3594048 271 249 Z" opacity="0.2"/></g><g transform="translate(-46,-86) scale(1,1)"><path fill="#ffffff" stroke="none" d="M 264 242 C 264 227.6405952 339.2161536 216 432 216 C 524.7838464 216 600 227.6405952 600 242 C 600 256.3594048 524.7838464 268 432 268 C 339.2161536 268 264 256.3594048 264 242 Z"/></g><g transform="translate(-46,-86) scale(1,1)"><path fill="none" stroke="#000000" d="M 264 242 C 264 227.6405952 339.2161536 216 432 216 C 524.7838464 216 600 227.6405952 600 242 C 600 256.3594048 524.7838464 268 432 268 C 339.2161536 268 264 256.3594048 264 242 Z" stroke-miterlimit="10"/></g><g transform="translate(-46,-86) scale(1,1)"><g><path fill="none" stroke="none"/><text fill="#000000" stroke="none" font-family="Arial" font-size="13px" font-style="normal" font-weight="bold" text-decoration="none" x="346.017822265625" y="242.5">Automatic motor control using</text><text fill="#000000" stroke="none" font-family="Arial" font-size="13px" font-style="normal" font-weight="bold" text-decoration="none" x="348.537841796875" y="255.5">Speed and Number of cycles</text></g></g><g transform="translate(-46,-86) scale(1,1)"><path fill="#C0C0C0" stroke="none" d="M 303 313 C 303 298.6405952 363.8892672 287 439 287 C 514.1107328 287 575 298.6405952 575 313 C 575 327.3594048 514.1107328 339 439 339 C 363.8892672 339 303 327.3594048 303 313 Z" opacity="0.2"/></g><g transform="translate(-46,-86) scale(1,1)"><path fill="#ffffff" stroke="none" d="M 296 306 C 296 291.6405952 356.8892672 280 432 280 C 507.1107328 280 568 291.6405952 568 306 C 568 320.3594048 507.1107328 332 432 332 C 356.8892672 332 296 320.3594048 296 306 Z"/></g><g transform="translate(-46,-86) scale(1,1)"><path fill="none" stroke="#000000" d="M 296 306 C 296 291.6405952 356.8892672 280 432 280 C 507.1107328 280 568 291.6405952 568 306 C 568 320.3594048 507.1107328 332 432 332 C 356.8892672 332 296 320.3594048 296 306 Z" stroke-miterlimit="10"/></g><g transform="translate(-46,-86) scale(1,1)"><g><path fill="none" stroke="none"/><text fill="#000000" stroke="none" font-family="Arial" font-size="13px" font-style="normal" font-weight="bold" text-decoration="none" x="353.965087890625" y="306.5">Real time values of varying</text><text fill="#000000" stroke="none" font-family="Arial" font-size="13px" font-style="normal" font-weight="bold" text-decoration="none" x="369.491455078125" y="319.5">mechanical quantities</text></g></g><g transform="translate(-46,-86) scale(1,1)"><path fill="#C0C0C0" stroke="none" d="M 359 480 C 359 470.6111584 395.7126464 463 441 463 C 486.2873536 463 523 470.6111584 523 480 C 523 489.3888416 486.2873536 497 441 497 C 395.7126464 497 359 489.3888416 359 480 Z" opacity="0.2"/></g><g transform="translate(-46,-86) scale(1,1)"><path fill="#ffffff" stroke="none" d="M 352 473 C 352 463.6111584 388.7126464 456 434 456 C 479.2873536 456 516 463.6111584 516 473 C 516 482.3888416 479.2873536 490 434 490 C 388.7126464 490 352 482.3888416 352 473 Z"/></g><g transform="translate(-46,-86) scale(1,1)"><path fill="none" stroke="#000000" d="M 352 473 C 352 463.6111584 388.7126464 456 434 456 C 479.2873536 456 516 463.6111584 516 473 C 516 482.3888416 479.2873536 490 434 490 C 388.7126464 490 352 482.3888416 352 473 Z" stroke-miterlimit="10"/></g><g transform="translate(-46,-86) scale(1,1)"><g><path fill="none" stroke="none"/><text fill="#000000" stroke="none" font-family="Arial" font-size="13px" font-style="normal" font-weight="bold" text-decoration="none" x="383.425048828125" y="480">Real time Graphs</text></g></g><g transform="translate(-46,-86) scale(1,1)"><path fill="#C0C0C0" stroke="none" d="M 351 536 C 351 526.6111584 390.8466528 519 440 519 C 489.1533472 519 529 526.6111584 529 536 C 529 545.3888416 489.1533472 553 440 553 C 390.8466528 553 351 545.3888416 351 536 Z" opacity="0.2"/></g><g transform="translate(-46,-86) scale(1,1)"><path fill="#ffffff" stroke="none" d="M 344 529 C 344 519.6111584 383.8466528 512 433 512 C 482.1533472 512 522 519.6111584 522 529 C 522 538.3888416 482.1533472 546 433 546 C 383.8466528 546 344 538.3888416 344 529 Z"/></g><g transform="translate(-46,-86) scale(1,1)"><path fill="none" stroke="#000000" d="M 344 529 C 344 519.6111584 383.8466528 512 433 512 C 482.1533472 512 522 519.6111584 522 529 C 522 538.3888416 482.1533472 546 433 546 C 383.8466528 546 344 538.3888416 344 529 Z" stroke-miterlimit="10"/></g><g transform="translate(-46,-86) scale(1,1)"><g><path fill="none" stroke="none"/><text fill="#000000" stroke="none" font-family="Arial" font-size="13px" font-style="normal" font-weight="bold" text-decoration="none" x="379.171875" y="536">Export to Excel file</text></g></g><g transform="translate(-46,-86) scale(1,1)"><path fill="#C0C0C0" stroke="none" d="M 375 600 C 375 590.6111584 402.0867696 583 435.5 583 C 468.9132304 583 496 590.6111584 496 600 C 496 609.3888416 468.9132304 617 435.5 617 C 402.0867696 617 375 609.3888416 375 600 Z" opacity="0.2"/></g><g transform="translate(-46,-86) scale(1,1)"><path fill="#ffffff" stroke="none" d="M 368 593 C 368 583.6111584 395.0867696 576 428.5 576 C 461.9132304 576 489 583.6111584 489 593 C 489 602.3888416 461.9132304 610 428.5 610 C 395.0867696 610 368 602.3888416 368 593 Z"/></g><g transform="translate(-46,-86) scale(1,1)"><path fill="none" stroke="#000000" d="M 368 593 C 368 583.6111584 395.0867696 576 428.5 576 C 461.9132304 576 489 583.6111584 489 593 C 489 602.3888416 461.9132304 610 428.5 610 C 395.0867696 610 368 602.3888416 368 593 Z" stroke-miterlimit="10"/></g><g transform="translate(-46,-86) scale(1,1)"><g><path fill="none" stroke="none"/><text fill="#000000" stroke="none" font-family="Arial" font-size="13px" font-style="normal" font-weight="bold" text-decoration="none" x="393.45458984375" y="600">Print graphs</text></g></g><g transform="translate(-46,-86) scale(1,1)"><path fill="#ffffff" stroke="none" d="M 87.23430149147727 273.68 C 87.23430149147727 268.886167936 91.12014381642273 265 95.91357421875 265 C 100.70700462107727 265 104.59284694602273 268.886167936 104.59284694602273 273.68 C 104.59284694602273 278.473832064 100.70700462107727 282.36 95.91357421875 282.36 C 91.12014381642273 282.36 87.23430149147727 278.473832064 87.23430149147727 273.68 Z"/></g><g transform="translate(-46,-86) scale(1,1)"><path fill="none" stroke="#000000" d="M 87.23430149147727 273.68 C 87.23430149147727 268.886167936 91.12014381642273 265 95.91357421875 265 C 100.70700462107727 265 104.59284694602273 268.886167936 104.59284694602273 273.68 C 104.59284694602273 278.473832064 100.70700462107727 282.36 95.91357421875 282.36 C 91.12014381642273 282.36 87.23430149147727 278.473832064 87.23430149147727 273.68 Z" stroke-miterlimit="10"/></g><g transform="translate(-46,-86) scale(1,1)"><path fill="none" stroke="#000000" d="M 95.91357421875 282.36 L 95.91357421875 299.64" stroke-miterlimit="10"/></g><g transform="translate(-46,-86) scale(1,1)"><path fill="none" stroke="#000000" d="M 86.72375603693182 288.84 L 105.10339240056818 288.84" stroke-miterlimit="10"/></g><g transform="translate(-46,-86) scale(1,1)"><path fill="none" stroke="#000000" d="M 95.91357421875 299.64 L 83.14993785511363 317" stroke-miterlimit="10"/></g><g transform="translate(-46,-86) scale(1,1)"><path fill="none" stroke="#000000" d="M 95.91357421875 299.64 L 108.67721058238637 317" stroke-miterlimit="10"/></g><g transform="translate(-46,-86) scale(1,1)"><g><path fill="none" stroke="none"/><text fill="#000000" stroke="none" font-family="Arial" font-size="13px" font-style="normal" font-weight="bold" text-decoration="none" x="74.6044921875" y="337.5">User or</text><text fill="#000000" stroke="none" font-family="Arial" font-size="13px" font-style="normal" font-weight="bold" text-decoration="none" x="62.3154296875" y="350.5">Researcher</text></g></g><g transform="translate(-46,-86) scale(1,1)"><path fill="none" stroke="#000000" d="M 137 280 L 192 240 L 295 217" stroke-miterlimit="10"/></g><g transform="translate(-46,-86) scale(1,1)"><g><path fill="none" stroke="none"/><text fill="#000000" stroke="none" font-family="Arial" font-size="13px" font-style="normal" font-weight="normal" text-decoration="none" x="111.5" y="227.5">+Using GUI buttons</text></g></g><g transform="translate(-46,-86) scale(1,1)"><path fill="none" stroke="#000000" d="M 137 302 L 298 269" stroke-miterlimit="10"/></g><g transform="translate(-46,-86) scale(1,1)"><g><path fill="none" stroke="none"/><text fill="#000000" stroke="none" font-family="Arial" font-size="13px" font-style="normal" font-weight="normal" text-decoration="none" x="175.0205078125" y="276.5">+Input in GUI</text></g></g><g transform="translate(-46,-86) scale(1,1)"><path fill="none" stroke="#000000" d="M 137 314 L 204 320 L 295 314" stroke-miterlimit="10"/></g><g transform="translate(-46,-86) scale(1,1)"><g><path fill="none" stroke="none"/><text fill="#000000" stroke="none" font-family="Arial" font-size="13px" font-style="normal" font-weight="normal" text-decoration="none" x="167.5" y="311.5">+See in GUI</text></g></g><g transform="translate(-46,-86) scale(1,1)"><path fill="none" stroke="#000000" d="M 135 357 L 200 432 L 351 458" stroke-miterlimit="10"/></g><g transform="translate(-46,-86) scale(1,1)"><g><path fill="none" stroke="none"/><text fill="#000000" stroke="none" font-family="Arial" font-size="13px" font-style="normal" font-weight="normal" text-decoration="none" x="183.5" y="420.5">+See in GUI</text></g></g><g transform="translate(-46,-86) scale(1,1)"><path fill="none" stroke="#000000" d="M 121 357 L 184 472 L 354 511" stroke-miterlimit="10"/></g><g transform="translate(-46,-86) scale(1,1)"><g><path fill="none" stroke="none"/><text fill="#000000" stroke="none" font-family="Arial" font-size="13px" font-style="normal" font-weight="normal" text-decoration="none" x="174.846435546875" y="470.5">+Using GUI button</text></g></g><g transform="translate(-46,-86) scale(1,1)"><path fill="none" stroke="#000000" d="M 111 357 L 152 480 L 384 575" stroke-miterlimit="10"/></g><g transform="translate(-46,-86) scale(1,1)"><g><path fill="none" stroke="none"/><text fill="#000000" stroke="none" font-family="Arial" font-size="13px" font-style="normal" font-weight="normal" text-decoration="none" x="134.846435546875" y="523.5">+Using GUI button</text></g></g><g transform="translate(-46,-86) scale(1,1)"><path fill="#ffffff" stroke="none" d="M 913.6458235085228 163.89 C 913.6458235085228 157.875618528 918.4671463931772 153 924.41455078125 153 C 930.3619551693228 153 935.1832780539772 157.875618528 935.1832780539772 163.89 C 935.1832780539772 169.90438147199998 930.3619551693228 174.78 924.41455078125 174.78 C 918.4671463931772 174.78 913.6458235085228 169.90438147199998 913.6458235085228 163.89 Z"/></g><g transform="translate(-46,-86) scale(1,1)"><path fill="none" stroke="#000000" d="M 913.6458235085228 163.89 C 913.6458235085228 157.875618528 918.4671463931772 153 924.41455078125 153 C 930.3619551693228 153 935.1832780539772 157.875618528 935.1832780539772 163.89 C 935.1832780539772 169.90438147199998 930.3619551693228 174.78 924.41455078125 174.78 C 918.4671463931772 174.78 913.6458235085228 169.90438147199998 913.6458235085228 163.89 Z" stroke-miterlimit="10"/></g><g transform="translate(-46,-86) scale(1,1)"><path fill="none" stroke="#000000" d="M 924.41455078125 174.78 L 924.41455078125 196.22" stroke-miterlimit="10"/></g><g transform="translate(-46,-86) scale(1,1)"><path fill="none" stroke="#000000" d="M 913.0123689630682 182.82 L 935.8167325994318 182.82" stroke-miterlimit="10"/></g><g transform="translate(-46,-86) scale(1,1)"><path fill="none" stroke="#000000" d="M 924.41455078125 196.22 L 908.5781871448864 218" stroke-miterlimit="10"/></g><g transform="translate(-46,-86) scale(1,1)"><path fill="none" stroke="#000000" d="M 924.41455078125 196.22 L 940.2509144176136 218" stroke-miterlimit="10"/></g><g transform="translate(-46,-86) scale(1,1)"><g><path fill="none" stroke="none"/><text fill="#000000" stroke="none" font-family="Arial" font-size="13px" font-style="normal" font-weight="bold" text-decoration="none" x="889.727783203125" y="238.5">Software on</text><text fill="#000000" stroke="none" font-family="Arial" font-size="13px" font-style="normal" font-weight="bold" text-decoration="none" x="902.010498046875" y="251.5">Arduino</text></g></g><g transform="translate(-46,-86) scale(1,1)"><path fill="none" stroke="#000000" d="M 569 192 L 879 202" stroke-miterlimit="10"/></g><g transform="translate(-46,-86) scale(1,1)"><g><path fill="none" stroke="none"/><text fill="#000000" stroke="none" font-family="Arial" font-size="13px" font-style="normal" font-weight="normal" text-decoration="none" x="618.5" y="213.5">+Control motor according to instructions</text></g></g><g transform="translate(-46,-86) scale(1,1)"><path fill="none" stroke="#000000" d="M 601 229 L 879 207" stroke-miterlimit="10"/></g><g transform="translate(-46,-86) scale(1,1)"><path fill="none" stroke="#000000" d="M 569 285 L 712 264 L 879 217" stroke-miterlimit="10"/></g><g transform="translate(-46,-86) scale(1,1)"><g><path fill="none" stroke="none"/><text fill="#000000" stroke="none" font-family="Arial" font-size="13px" font-style="normal" font-weight="normal" text-decoration="none" x="639.5" y="291.5">+Transmit load cell voltage readings after smoothing</text></g></g><g transform="translate(-46,-86) scale(1,1)"><path fill="#C0C0C0" stroke="none" d="M 247 395 C 247 383.954304 299.1588208 375 363.5 375 C 427.8411792 375 480 383.954304 480 395 C 480 406.045696 427.8411792 415 363.5 415 C 299.1588208 415 247 406.045696 247 395 Z" opacity="0.2"/></g><g transform="translate(-46,-86) scale(1,1)"><path fill="#ffffff" stroke="none" d="M 240 388 C 240 376.954304 292.1588208 368 356.5 368 C 420.8411792 368 473 376.954304 473 388 C 473 399.045696 420.8411792 408 356.5 408 C 292.1588208 408 240 399.045696 240 388 Z"/></g><g transform="translate(-46,-86) scale(1,1)"><path fill="none" stroke="#000000" d="M 240 388 C 240 376.954304 292.1588208 368 356.5 368 C 420.8411792 368 473 376.954304 473 388 C 473 399.045696 420.8411792 408 356.5 408 C 292.1588208 408 240 399.045696 240 388 Z" stroke-miterlimit="10"/></g><g transform="translate(-46,-86) scale(1,1)"><g><path fill="none" stroke="none"/><text fill="#000000" stroke="none" font-family="Arial" font-size="13px" font-style="normal" font-weight="bold" text-decoration="none" x="284.6064453125" y="395">Convert voltage to stress</text></g></g><g transform="translate(-46,-86) scale(1,1)"><path fill="none" stroke="#000000" d="M 407 333 L 375 367" stroke-miterlimit="10" stroke-dasharray="3"/></g><g transform="translate(-46,-86) scale(1,1)"><path fill="none" stroke="#000000" d="M 378.8997677957101 356.7144853731307 L 375 367 L 385.0305093940522 362.48459511274683" stroke-miterlimit="10"/></g><g transform="translate(-46,-86) scale(1,1)"><g><path fill="none" stroke="none"/><text fill="#000000" stroke="none" font-family="Arial" font-size="13px" font-style="normal" font-weight="normal" text-decoration="none" x="390.5" y="357.5">«include»</text></g></g><g transform="translate(-46,-86) scale(1,1)"><path fill="none" stroke="#000000" d="M 417 455 L 375 409" stroke-miterlimit="10" stroke-dasharray="3"/></g><g transform="translate(-46,-86) scale(1,1)"><path fill="none" stroke="#000000" d="M 384.9610481122565 413.66663910167813 L 375 409 L 378.74371251375516 419.3433368220489" stroke-miterlimit="10"/></g><g transform="translate(-46,-86) scale(1,1)"><g><path fill="none" stroke="none"/><text fill="#000000" stroke="none" font-family="Arial" font-size="13px" font-style="normal" font-weight="normal" text-decoration="none" x="394.5" y="426.5">«include»</text></g></g><g transform="translate(-46,-86) scale(1,1)"><path fill="#C0C0C0" stroke="none" d="M 487 392 C 487 382.6111584 520.57864 375 562 375 C 603.42136 375 637 382.6111584 637 392 C 637 401.3888416 603.42136 409 562 409 C 520.57864 409 487 401.3888416 487 392 Z" opacity="0.2"/></g><g transform="translate(-46,-86) scale(1,1)"><path fill="#ffffff" stroke="none" d="M 480 385 C 480 375.6111584 513.57864 368 555 368 C 596.42136 368 630 375.6111584 630 385 C 630 394.3888416 596.42136 402 555 402 C 513.57864 402 480 394.3888416 480 385 Z"/></g><g transform="translate(-46,-86) scale(1,1)"><path fill="none" stroke="#000000" d="M 480 385 C 480 375.6111584 513.57864 368 555 368 C 596.42136 368 630 375.6111584 630 385 C 630 394.3888416 596.42136 402 555 402 C 513.57864 402 480 394.3888416 480 385 Z" stroke-miterlimit="10"/></g><g transform="translate(-46,-86) scale(1,1)"><g><path fill="none" stroke="none"/><text fill="#000000" stroke="none" font-family="Arial" font-size="13px" font-style="normal" font-weight="bold" text-decoration="none" x="510.201416015625" y="392">Calculate strain</text></g></g><g transform="translate(-46,-86) scale(1,1)"><path fill="none" stroke="#000000" d="M 474 333 L 527 367" stroke-miterlimit="10" stroke-dasharray="3"/></g><g transform="translate(-46,-86) scale(1,1)"><path fill="none" stroke="#000000" d="M 516.1731878393164 365.05574218857845 L 527 367 L 520.7190855853787 357.96948981971656" stroke-miterlimit="10"/></g><g transform="translate(-46,-86) scale(1,1)"><g><path fill="none" stroke="none"/><text fill="#000000" stroke="none" font-family="Arial" font-size="13px" font-style="normal" font-weight="normal" text-decoration="none" x="503.5" y="348.5">«include»</text></g></g><g transform="translate(-46,-86) scale(1,1)"><path fill="none" stroke="#000000" d="M 459 455 L 530 403" stroke-miterlimit="10" stroke-dasharray="3"/></g><g transform="translate(-46,-86) scale(1,1)"><path fill="none" stroke="#000000" d="M 524.2883802245342 412.4009254619164 L 530 403 L 519.3138167816586 405.6087330687593" stroke-miterlimit="10"/></g><g transform="translate(-46,-86) scale(1,1)"><g><path fill="none" stroke="none"/><text fill="#000000" stroke="none" font-family="Arial" font-size="13px" font-style="normal" font-weight="normal" text-decoration="none" x="495.5" y="443.5">«include»</text></g></g></g></svg>