<svg version="1.1" xmlns="http://www.w3.org/2000/svg" xmlns:xlink="http://www.w3.org/1999/xlink" width="1036" height="620"><defs/><g><g transform="translate(10,10) scale(1,1)"><path fill="none" stroke="#000000" d="M 0 0 L 1016 0 L 1016 600 L 0 600 L 0 0" stroke-miterlimit="10"/></g><g transform="translate(10,10) scale(1,1)"><path fill="#ffffff" stroke="none" d="M 0 0 L 0 22 L 216.1416015625 22 L 227.1416015625 11 L 227.1416015625 0 L 0 0"/></g><g transform="translate(10,10) scale(1,1)"><path fill="none" stroke="#000000" d="M 0 0 L 0 22 L 216.1416015625 22 L 227.1416015625 11 L 227.1416015625 0 L 0 0 L 0 0" stroke-miterlimit="10"/></g><g transform="translate(10,10) scale(1,1)"><g><path fill="none" stroke="none"/><text fill="#000000" stroke="none" font-family="Arial" font-size="13px" font-style="normal" font-weight="normal" text-decoration="none" x="70.97900390625" y="17.5">Automatic Motor Control</text></g></g><g transform="translate(10,10) scale(1,1)"><g><path fill="none" stroke="none"/><text fill="#000000" stroke="none" font-family="Arial" font-size="13px" font-style="normal" font-weight="bold" text-decoration="none" x="5" y="17.5">interaction</text></g></g><g transform="translate(10,10) scale(1,1)"><rect fill="#C0C0C0" stroke="none" x="199" y="47" width="71.736328125" height="39" opacity="0.2"/></g><g transform="translate(10,10) scale(1,1)"><rect fill="#ffffff" stroke="none" x="192" y="40" width="71.736328125" height="39"/></g><g transform="translate(10,10) scale(1,1)"><path fill="none" stroke="#000000" d="M 192 40 L 263.736328125 40 L 263.736328125 79 L 192 79 L 192 40 Z Z" stroke-miterlimit="10"/></g><g transform="translate(10,10) scale(1,1)"><g><path fill="none" stroke="none"/><text fill="#000000" stroke="none" font-family="Arial" font-size="13px" font-style="normal" font-weight="bold" text-decoration="none" x="213.7890625" y="59.5">UTM</text></g></g><g transform="translate(10,10) scale(1,1)"><path fill="none" stroke="#000000" d="M 228.5 80 L 228.5 568" stroke-miterlimit="10" stroke-dasharray="3"/></g><g transform="translate(10,10) scale(1,1)"><rect fill="#C0C0C0" stroke="none" x="407" y="47" width="71.736328125" height="39" opacity="0.2"/></g><g transform="translate(10,10) scale(1,1)"><rect fill="#ffffff" stroke="none" x="400" y="40" width="71.736328125" height="39"/></g><g transform="translate(10,10) scale(1,1)"><path fill="none" stroke="#000000" d="M 400 40 L 471.736328125 40 L 471.736328125 79 L 400 79 L 400 40 Z Z" stroke-miterlimit="10"/></g><g transform="translate(10,10) scale(1,1)"><g><path fill="none" stroke="none"/><text fill="#000000" stroke="none" font-family="Arial" font-size="13px" font-style="normal" font-weight="bold" text-decoration="none" x="419.253173828125" y="59.5">Motor</text></g></g><g transform="translate(10,10) scale(1,1)"><path fill="none" stroke="#000000" d="M 436.5 80 L 436.5 570" stroke-miterlimit="10" stroke-dasharray="3"/></g><g transform="translate(10,10) scale(1,1)"><rect fill="#C0C0C0" stroke="none" x="575" y="47" width="146.8291015625" height="39" opacity="0.2"/></g><g transform="translate(10,10) scale(1,1)"><rect fill="#ffffff" stroke="none" x="568" y="40" width="146.8291015625" height="39"/></g><g transform="translate(10,10) scale(1,1)"><path fill="none" stroke="#000000" d="M 568 40 L 714.8291015625 40 L 714.8291015625 79 L 568 79 L 568 40 Z Z" stroke-miterlimit="10"/></g><g transform="translate(10,10) scale(1,1)"><g><path fill="none" stroke="none"/><text fill="#000000" stroke="none" font-family="Arial" font-size="13px" font-style="normal" font-weight="bold" text-decoration="none" x="582.517822265625" y="59.5">Software on Arduino</text></g></g><g transform="translate(10,10) scale(1,1)"><path fill="none" stroke="#000000" d="M 642.5 80 L 642.5 570" stroke-miterlimit="10" stroke-dasharray="3"/></g><g transform="translate(10,10) scale(1,1)"><path fill="#000000" stroke="none" d="M 48 111.5 C 48 107.6340064 51.1340064 104.5 55 104.5 C 58.8659936 104.5 62 107.6340064 62 111.5 C 62 115.3659936 58.8659936 118.5 55 118.5 C 51.1340064 118.5 48 115.3659936 48 111.5 Z"/></g><g transform="translate(10,10) scale(1,1)"><path fill="#000000" stroke="none" d="M 48 191.5 C 48 187.6340064 51.1340064 184.5 55 184.5 C 58.8659936 184.5 62 187.6340064 62 191.5 C 62 195.3659936 58.8659936 198.5 55 198.5 C 51.1340064 198.5 48 195.3659936 48 191.5 Z"/></g><g transform="translate(10,10) scale(1,1)"><g><path fill="none" stroke="none"/><text fill="#000000" stroke="none" font-family="Arial" font-size="13px" font-style="normal" font-weight="normal" text-decoration="none" x="661" y="274">Phase</text><text fill="#000000" stroke="none" font-family="Arial" font-size="13px" font-style="normal" font-weight="normal" text-decoration="none" x="661" y="287">width</text><text fill="#000000" stroke="none" font-family="Arial" font-size="13px" font-style="normal" font-weight="normal" text-decoration="none" x="661" y="300">modulation</text></g></g><g transform="translate(10,10) scale(1,1)"><path fill="#000000" stroke="none" d="M 750 329.5 C 750 325.6340064 753.1340064 322.5 757 322.5 C 760.8659936 322.5 764 325.6340064 764 329.5 C 764 333.3659936 760.8659936 336.5 757 336.5 C 753.1340064 336.5 750 333.3659936 750 329.5 Z"/></g><g transform="translate(10,10) scale(1,1)"><path fill="#000000" stroke="none" d="M 758 391.5 C 758 387.6340064 761.1340064 384.5 765 384.5 C 768.8659936 384.5 772 387.6340064 772 391.5 C 772 395.3659936 768.8659936 398.5 765 398.5 C 761.1340064 398.5 758 395.3659936 758 391.5 Z"/></g><g transform="translate(10,10) scale(1,1)"><g><path fill="none" stroke="none"/><text fill="#000000" stroke="none" font-family="Arial" font-size="13px" font-style="normal" font-weight="normal" text-decoration="none" x="669" y="546">Analog</text><text fill="#000000" stroke="none" font-family="Arial" font-size="13px" font-style="normal" font-weight="normal" text-decoration="none" x="669" y="559">signal</text><text fill="#000000" stroke="none" font-family="Arial" font-size="13px" font-style="normal" font-weight="normal" text-decoration="none" x="669" y="572">stopped</text></g></g><g transform="translate(10,10) scale(1,1)"><path fill="#000000" stroke="none" d="M 0 247.5 C 0 243.6340064 3.1340063999999996 240.5 7 240.5 C 10.8659936 240.5 14 243.6340064 14 247.5 C 14 251.3659936 10.8659936 254.5 7 254.5 C 3.1340063999999996 254.5 0 251.3659936 0 247.5 Z"/></g><g transform="translate(10,10) scale(1,1)"><path fill="#000000" stroke="none" d="M 757 495.5 C 757 491.6340064 760.1340064 488.5 764 488.5 C 767.8659936 488.5 771 491.6340064 771 495.5 C 771 499.3659936 767.8659936 502.5 764 502.5 C 760.1340064 502.5 757 499.3659936 757 495.5 Z"/></g><g transform="translate(10,10) scale(1,1)"><path fill="none" stroke="#000000" d="M 336 344 L 991 344 L 991 512 L 336 512 L 336 344" stroke-miterlimit="10"/></g><g transform="translate(10,10) scale(1,1)"><path fill="#ffffff" stroke="none" d="M 336 344 L 336 366 L 412.6962890625 366 L 423.6962890625 355 L 423.6962890625 344 L 336 344"/></g><g transform="translate(10,10) scale(1,1)"><path fill="none" stroke="#000000" d="M 336 344 L 336 366 L 412.6962890625 366 L 423.6962890625 355 L 423.6962890625 344 L 336 344 L 336 344" stroke-miterlimit="10"/></g><g transform="translate(10,10) scale(1,1)"><g><path fill="none" stroke="none"/><text fill="#000000" stroke="none" font-family="Arial" font-size="13px" font-style="normal" font-weight="normal" text-decoration="none" x="371.578125" y="361.5">cycles</text></g></g><g transform="translate(10,10) scale(1,1)"><g><path fill="none" stroke="none"/><text fill="#000000" stroke="none" font-family="Arial" font-size="13px" font-style="normal" font-weight="bold" text-decoration="none" x="341" y="361.5">loop</text></g></g><g transform="translate(10,10) scale(1,1)"><path fill="none" stroke="#000000" d="M 62 112 L 221 112" stroke-miterlimit="10"/></g><g transform="translate(10,10) scale(1,1)"><path fill="#000000" stroke="none" d="M 210.83732514237585 116.20951775601598 L 221 112 L 210.83732514237585 107.79048224398402"/></g><g transform="translate(10,10) scale(1,1)"><path fill="none" stroke="#000000" d="M 210.83732514237585 116.20951775601598 L 221 112 L 210.83732514237585 107.79048224398402 L 210.83732514237585 116.20951775601598" stroke-miterlimit="10"/></g><g transform="translate(10,10) scale(1,1)"><g><path fill="none" stroke="none"/><text fill="#000000" stroke="none" font-family="Arial" font-size="13px" font-style="normal" font-weight="normal" text-decoration="none" x="97.082275390625" y="108.5">1 : Speed input</text></g></g><g transform="translate(10,10) scale(1,1)"><rect fill="#ffffff" stroke="none" x="221" y="112" width="13" height="200"/></g><g transform="translate(10,10) scale(1,1)"><path fill="none" stroke="#000000" d="M 221 112 L 234 112 L 234 312 L 221 312 L 221 112 Z Z" stroke-miterlimit="10"/></g><g transform="translate(10,10) scale(1,1)"><path fill="none" stroke="#000000" d="M 234 129 L 429 129" stroke-miterlimit="10"/></g><g transform="translate(10,10) scale(1,1)"><path fill="#000000" stroke="none" d="M 418.83732514237585 133.209517756016 L 429 129 L 418.83732514237585 124.79048224398402"/></g><g transform="translate(10,10) scale(1,1)"><path fill="none" stroke="#000000" d="M 418.83732514237585 133.209517756016 L 429 129 L 418.83732514237585 124.79048224398402 L 418.83732514237585 133.209517756016" stroke-miterlimit="10"/></g><g transform="translate(10,10) scale(1,1)"><g><path fill="none" stroke="none"/><text fill="#000000" stroke="none" font-family="Arial" font-size="13px" font-style="normal" font-weight="normal" text-decoration="none" x="238.5" y="124.5">2 : change_speed(new_speed)</text></g></g><g transform="translate(10,10) scale(1,1)"><rect fill="#ffffff" stroke="none" x="429" y="129" width="13" height="28"/></g><g transform="translate(10,10) scale(1,1)"><path fill="none" stroke="#000000" d="M 429 129 L 442 129 L 442 157 L 429 157 L 429 129 Z Z" stroke-miterlimit="10"/></g><g transform="translate(10,10) scale(1,1)"><path fill="none" stroke="#000000" d="M 429 156 L 234 156" stroke-miterlimit="10" stroke-dasharray="3"/></g><g transform="translate(10,10) scale(1,1)"><path fill="none" stroke="#000000" d="M 244.16267485762415 151.790482243984 L 234 156 L 244.16267485762415 160.209517756016" stroke-miterlimit="10"/></g><g transform="translate(10,10) scale(1,1)"><g><path fill="none" stroke="none"/><text fill="#000000" stroke="none" font-family="Arial" font-size="13px" font-style="normal" font-weight="normal" text-decoration="none" x="271.5" y="172.5">3 : Speed changed</text></g></g><g transform="translate(10,10) scale(1,1)"><path fill="none" stroke="#000000" d="M 62 192 L 228 192" stroke-miterlimit="10"/></g><g transform="translate(10,10) scale(1,1)"><path fill="#000000" stroke="none" d="M 217.83732514237585 196.209517756016 L 228 192 L 217.83732514237585 187.790482243984"/></g><g transform="translate(10,10) scale(1,1)"><path fill="none" stroke="#000000" d="M 217.83732514237585 196.209517756016 L 228 192 L 217.83732514237585 187.790482243984 L 217.83732514237585 196.209517756016" stroke-miterlimit="10"/></g><g transform="translate(10,10) scale(1,1)"><g><path fill="none" stroke="none"/><text fill="#000000" stroke="none" font-family="Arial" font-size="13px" font-style="normal" font-weight="normal" text-decoration="none" x="64.97265625" y="179.5">4 : No. of cycles input</text></g></g><g transform="translate(10,10) scale(1,1)"><rect fill="#ffffff" stroke="none" x="228" y="192" width="13" height="28"/></g><g transform="translate(10,10) scale(1,1)"><path fill="none" stroke="#000000" d="M 228 192 L 241 192 L 241 220 L 228 220 L 228 192 Z Z" stroke-miterlimit="10"/></g><g transform="translate(10,10) scale(1,1)"><path fill="none" stroke="#000000" d="M 442 432 L 472 432 L 472 452 L 449 452" stroke-miterlimit="10"/></g><g transform="translate(10,10) scale(1,1)"><path fill="#000000" stroke="none" d="M 459.16267485762415 447.790482243984 L 449 452 L 459.16267485762415 456.209517756016"/></g><g transform="translate(10,10) scale(1,1)"><path fill="none" stroke="#000000" d="M 459.16267485762415 447.790482243984 L 449 452 L 459.16267485762415 456.209517756016 L 459.16267485762415 447.790482243984" stroke-miterlimit="10"/></g><g transform="translate(10,10) scale(1,1)"><g><path fill="none" stroke="none"/><text fill="#000000" stroke="none" font-family="Arial" font-size="13px" font-style="normal" font-weight="normal" text-decoration="none" x="478.5" y="444.5">13 : change_direction(_)</text></g></g><g transform="translate(10,10) scale(1,1)"><rect fill="#ffffff" stroke="none" x="436" y="452" width="13" height="84"/></g><g transform="translate(10,10) scale(1,1)"><path fill="none" stroke="#000000" d="M 436 452 L 449 452 L 449 536 L 436 536 L 436 452 Z Z" stroke-miterlimit="10"/></g><g transform="translate(10,10) scale(1,1)"><path fill="none" stroke="#000000" d="M 449 464 L 635 464" stroke-miterlimit="10"/></g><g transform="translate(10,10) scale(1,1)"><path fill="#000000" stroke="none" d="M 624.8373251423759 468.209517756016 L 635 464 L 624.8373251423758 459.790482243984"/></g><g transform="translate(10,10) scale(1,1)"><path fill="none" stroke="#000000" d="M 624.8373251423759 468.209517756016 L 635 464 L 624.8373251423758 459.790482243984 L 624.8373251423759 468.209517756016" stroke-miterlimit="10"/></g><g transform="translate(10,10) scale(1,1)"><g><path fill="none" stroke="none"/><text fill="#000000" stroke="none" font-family="Arial" font-size="13px" font-style="normal" font-weight="normal" text-decoration="none" x="450.5" y="460.5">14 : Instruction to change direction</text></g></g><g transform="translate(10,10) scale(1,1)"><rect fill="#ffffff" stroke="none" x="635" y="464" width="13" height="28"/></g><g transform="translate(10,10) scale(1,1)"><path fill="none" stroke="#000000" d="M 635 464 L 648 464 L 648 492 L 635 492 L 635 464 Z Z" stroke-miterlimit="10"/></g><g transform="translate(10,10) scale(1,1)"><path fill="none" stroke="#000000" d="M 442 360 L 472 360 L 472 380 L 449 380" stroke-miterlimit="10"/></g><g transform="translate(10,10) scale(1,1)"><path fill="#000000" stroke="none" d="M 459.16267485762415 375.790482243984 L 449 380 L 459.16267485762415 384.209517756016"/></g><g transform="translate(10,10) scale(1,1)"><path fill="none" stroke="#000000" d="M 459.16267485762415 375.790482243984 L 449 380 L 459.16267485762415 384.209517756016 L 459.16267485762415 375.790482243984" stroke-miterlimit="10"/></g><g transform="translate(10,10) scale(1,1)"><g><path fill="none" stroke="none"/><text fill="#000000" stroke="none" font-family="Arial" font-size="13px" font-style="normal" font-weight="normal" text-decoration="none" x="474.5" y="375.5">10 : change_direction(_)</text></g></g><g transform="translate(10,10) scale(1,1)"><rect fill="#ffffff" stroke="none" x="436" y="380" width="13" height="52"/></g><g transform="translate(10,10) scale(1,1)"><path fill="none" stroke="#000000" d="M 436 380 L 449 380 L 449 432 L 436 432 L 436 380 Z Z" stroke-miterlimit="10"/></g><g transform="translate(10,10) scale(1,1)"><path fill="none" stroke="#000000" d="M 442 265 L 635 265" stroke-miterlimit="10"/></g><g transform="translate(10,10) scale(1,1)"><path fill="none" stroke="#000000" d="M 624.8373251423759 269.209517756016 L 635 265 L 624.8373251423758 260.790482243984" stroke-miterlimit="10"/></g><g transform="translate(10,10) scale(1,1)"><g><path fill="none" stroke="none"/><text fill="#000000" stroke="none" font-family="Arial" font-size="13px" font-style="normal" font-weight="normal" text-decoration="none" x="458.5" y="261.5">7 : Instruction to start motor</text></g></g><g transform="translate(10,10) scale(1,1)"><rect fill="#ffffff" stroke="none" x="635" y="265" width="13" height="71"/></g><g transform="translate(10,10) scale(1,1)"><path fill="none" stroke="#000000" d="M 635 265 L 648 265 L 648 336 L 635 336 L 635 265 Z Z" stroke-miterlimit="10"/></g><g transform="translate(10,10) scale(1,1)"><path fill="none" stroke="#000000" d="M 642 392 L 758 392" stroke-miterlimit="10"/></g><g transform="translate(10,10) scale(1,1)"><path fill="#000000" stroke="none" d="M 747.8373251423759 396.209517756016 L 758 392 L 747.8373251423758 387.790482243984"/></g><g transform="translate(10,10) scale(1,1)"><path fill="none" stroke="#000000" d="M 747.8373251423759 396.209517756016 L 758 392 L 747.8373251423758 387.790482243984 L 747.8373251423759 396.209517756016" stroke-miterlimit="10"/></g><g transform="translate(10,10) scale(1,1)"><g><path fill="none" stroke="none"/><text fill="#000000" stroke="none" font-family="Arial" font-size="13px" font-style="normal" font-weight="normal" text-decoration="none" x="652.5" y="380.5">11 : Reverse Analog voltage signal to motor controller</text></g></g><g transform="translate(10,10) scale(1,1)"><path fill="none" stroke="#000000" d="M 449 400 L 635 400" stroke-miterlimit="10"/></g><g transform="translate(10,10) scale(1,1)"><path fill="#000000" stroke="none" d="M 624.8373251423759 404.209517756016 L 635 400 L 624.8373251423758 395.790482243984"/></g><g transform="translate(10,10) scale(1,1)"><path fill="none" stroke="#000000" d="M 624.8373251423759 404.209517756016 L 635 400 L 624.8373251423758 395.790482243984 L 624.8373251423759 404.209517756016" stroke-miterlimit="10"/></g><g transform="translate(10,10) scale(1,1)"><g><path fill="none" stroke="none"/><text fill="#000000" stroke="none" font-family="Arial" font-size="13px" font-style="normal" font-weight="normal" text-decoration="none" x="450.5" y="396.5">12 : Instruction to change direction</text></g></g><g transform="translate(10,10) scale(1,1)"><rect fill="#ffffff" stroke="none" x="635" y="400" width="13" height="28"/></g><g transform="translate(10,10) scale(1,1)"><path fill="none" stroke="#000000" d="M 635 400 L 648 400 L 648 428 L 635 428 L 635 400 Z Z" stroke-miterlimit="10"/></g><g transform="translate(10,10) scale(1,1)"><path fill="none" stroke="#000000" d="M 648 330 L 750 330" stroke-miterlimit="10"/></g><g transform="translate(10,10) scale(1,1)"><path fill="#000000" stroke="none" d="M 739.8373251423759 334.209517756016 L 750 330 L 739.8373251423758 325.790482243984"/></g><g transform="translate(10,10) scale(1,1)"><path fill="none" stroke="#000000" d="M 739.8373251423759 334.209517756016 L 750 330 L 739.8373251423758 325.790482243984 L 739.8373251423759 334.209517756016" stroke-miterlimit="10"/></g><g transform="translate(10,10) scale(1,1)"><g><path fill="none" stroke="none"/><text fill="#000000" stroke="none" font-family="Arial" font-size="13px" font-style="normal" font-weight="normal" text-decoration="none" x="655.114990234375" y="316.5">9 : Analog voltage signal to motor controller</text></g></g><g transform="translate(10,10) scale(1,1)"><path fill="none" stroke="#000000" d="M 429 281 L 241 281" stroke-miterlimit="10" stroke-dasharray="3"/></g><g transform="translate(10,10) scale(1,1)"><path fill="none" stroke="#000000" d="M 251.16267485762415 276.790482243984 L 241 281 L 251.16267485762415 285.209517756016" stroke-miterlimit="10"/></g><g transform="translate(10,10) scale(1,1)"><g><path fill="none" stroke="none"/><text fill="#000000" stroke="none" font-family="Arial" font-size="13px" font-style="normal" font-weight="normal" text-decoration="none" x="304.114990234375" y="297.5">8 : Started</text></g></g><g transform="translate(10,10) scale(1,1)"><path fill="none" stroke="#000000" d="M 241 248 L 429 248" stroke-miterlimit="10"/></g><g transform="translate(10,10) scale(1,1)"><path fill="#000000" stroke="none" d="M 418.83732514237585 252.209517756016 L 429 248 L 418.83732514237585 243.790482243984"/></g><g transform="translate(10,10) scale(1,1)"><path fill="none" stroke="#000000" d="M 418.83732514237585 252.209517756016 L 429 248 L 418.83732514237585 243.790482243984 L 418.83732514237585 252.209517756016" stroke-miterlimit="10"/></g><g transform="translate(10,10) scale(1,1)"><g><path fill="none" stroke="none"/><text fill="#000000" stroke="none" font-family="Arial" font-size="13px" font-style="normal" font-weight="normal" text-decoration="none" x="243.5" y="236.5">6 : automatic_control(no_of_cycles)</text></g></g><g transform="translate(10,10) scale(1,1)"><rect fill="#ffffff" stroke="none" x="429" y="248" width="13" height="304"/></g><g transform="translate(10,10) scale(1,1)"><path fill="none" stroke="#000000" d="M 429 248 L 442 248 L 442 552 L 429 552 L 429 248 Z Z" stroke-miterlimit="10"/></g><g transform="translate(10,10) scale(1,1)"><path fill="none" stroke="#000000" d="M 14 248 L 228 248" stroke-miterlimit="10"/></g><g transform="translate(10,10) scale(1,1)"><path fill="#000000" stroke="none" d="M 217.83732514237585 252.209517756016 L 228 248 L 217.83732514237585 243.790482243984"/></g><g transform="translate(10,10) scale(1,1)"><path fill="none" stroke="#000000" d="M 217.83732514237585 252.209517756016 L 228 248 L 217.83732514237585 243.790482243984 L 217.83732514237585 252.209517756016" stroke-miterlimit="10"/></g><g transform="translate(10,10) scale(1,1)"><g><path fill="none" stroke="none"/><text fill="#000000" stroke="none" font-family="Arial" font-size="13px" font-style="normal" font-weight="normal" text-decoration="none" x="3.5" y="235.5">5 : Start automatic control button clicked</text></g></g><g transform="translate(10,10) scale(1,1)"><rect fill="#ffffff" stroke="none" x="228" y="248" width="13" height="40"/></g><g transform="translate(10,10) scale(1,1)"><path fill="none" stroke="#000000" d="M 228 248 L 241 248 L 241 288 L 228 288 L 228 248 Z Z" stroke-miterlimit="10"/></g><g transform="translate(10,10) scale(1,1)"><path fill="none" stroke="#000000" d="M 642 496 L 757 496" stroke-miterlimit="10"/></g><g transform="translate(10,10) scale(1,1)"><path fill="#000000" stroke="none" d="M 746.8373251423759 500.209517756016 L 757 496 L 746.8373251423758 491.790482243984"/></g><g transform="translate(10,10) scale(1,1)"><path fill="none" stroke="#000000" d="M 746.8373251423759 500.209517756016 L 757 496 L 746.8373251423758 491.790482243984 L 746.8373251423759 500.209517756016" stroke-miterlimit="10"/></g><g transform="translate(10,10) scale(1,1)"><g><path fill="none" stroke="none"/><text fill="#000000" stroke="none" font-family="Arial" font-size="13px" font-style="normal" font-weight="normal" text-decoration="none" x="655.5" y="484.5">15 : Reverse Analog voltage signal to motor controller</text></g></g><g transform="translate(10,10) scale(1,1)"><path fill="none" stroke="#000000" d="M 449 528 L 635 528" stroke-miterlimit="10"/></g><g transform="translate(10,10) scale(1,1)"><path fill="#000000" stroke="none" d="M 624.8373251423759 532.209517756016 L 635 528 L 624.8373251423758 523.790482243984"/></g><g transform="translate(10,10) scale(1,1)"><path fill="none" stroke="#000000" d="M 624.8373251423759 532.209517756016 L 635 528 L 624.8373251423758 523.790482243984 L 624.8373251423759 532.209517756016" stroke-miterlimit="10"/></g><g transform="translate(10,10) scale(1,1)"><g><path fill="none" stroke="none"/><text fill="#000000" stroke="none" font-family="Arial" font-size="13px" font-style="normal" font-weight="normal" text-decoration="none" x="478.04736328125" y="524.5">16 : Instruction to stop</text></g></g><g transform="translate(10,10) scale(1,1)"><rect fill="#ffffff" stroke="none" x="635" y="528" width="13" height="28"/></g><g transform="translate(10,10) scale(1,1)"><path fill="none" stroke="#000000" d="M 635 528 L 648 528 L 648 556 L 635 556 L 635 528 Z Z" stroke-miterlimit="10"/></g></g></svg>