<svg version="1.1" xmlns="http://www.w3.org/2000/svg" xmlns:xlink="http://www.w3.org/1999/xlink" width="779" height="684"><defs/><g><g transform="translate(10,-54) scale(1,1)"><rect fill="#C0C0C0" stroke="none" x="631" y="343" width="135" height="151" opacity="0.2"/></g><g transform="translate(10,-54) scale(1,1)"><rect fill="#ffffff" stroke="none" x="624" y="336" width="135" height="151"/></g><g transform="translate(10,-54) scale(1,1)"><path fill="none" stroke="#000000" d="M 624 336 L 759 336 L 759 487 L 624 487 L 624 336 Z Z" stroke-miterlimit="10"/></g><g transform="translate(10,-54) scale(1,1)"><path fill="none" stroke="#000000" d="M 624 361 L 759 361" stroke-miterlimit="10"/></g><g transform="translate(10,-54) scale(1,1)"><path fill="none" stroke="#000000" d="M 624 399 L 759 399" stroke-miterlimit="10"/></g><g transform="translate(10,-54) scale(1,1)"><g><path fill="none" stroke="none"/><text fill="#000000" stroke="none" font-family="Arial" font-size="13px" font-style="normal" font-weight="bold" text-decoration="none" x="669.095947265625" y="355.5">Arduino</text></g></g><g transform="translate(10,-54) scale(1,1)"><g><path fill="none" stroke="none"/><text fill="#000000" stroke="none" font-family="Arial" font-size="13px" font-style="normal" font-weight="normal" text-decoration="none" x="629" y="378.5">-serial_port: int</text></g></g><g transform="translate(10,-54) scale(1,1)"><g><path fill="none" stroke="none"/><text fill="#000000" stroke="none" font-family="Arial" font-size="13px" font-style="normal" font-weight="normal" text-decoration="none" x="629" y="393.5">-serial_rate: int</text></g></g><g transform="translate(10,-54) scale(1,1)"><g><path fill="none" stroke="none"/><text fill="#000000" stroke="none" font-family="Arial" font-size="13px" font-style="normal" font-weight="normal" text-decoration="none" x="629" y="416.5">+connect()</text></g></g><g transform="translate(10,-54) scale(1,1)"><rect fill="#C0C0C0" stroke="none" x="183" y="159" width="162.5625" height="80" opacity="0.2"/></g><g transform="translate(10,-54) scale(1,1)"><rect fill="#ffffff" stroke="none" x="176" y="152" width="162.5625" height="80"/></g><g transform="translate(10,-54) scale(1,1)"><path fill="none" stroke="#000000" d="M 176 152 L 338.5625 152 L 338.5625 232 L 176 232 L 176 152 Z Z" stroke-miterlimit="10"/></g><g transform="translate(10,-54) scale(1,1)"><path fill="none" stroke="#000000" d="M 176 177 L 338.5625 177" stroke-miterlimit="10"/></g><g transform="translate(10,-54) scale(1,1)"><path fill="none" stroke="#000000" d="M 176 200 L 338.5625 200" stroke-miterlimit="10"/></g><g transform="translate(10,-54) scale(1,1)"><g><path fill="none" stroke="none"/><text fill="#000000" stroke="none" font-family="Arial" font-size="13px" font-style="normal" font-weight="bold" text-decoration="none" x="231.6240234375" y="171.5">LoadCell</text></g></g><g transform="translate(10,-54) scale(1,1)"><g><path fill="none" stroke="none"/><text fill="#000000" stroke="none" font-family="Arial" font-size="13px" font-style="normal" font-weight="normal" text-decoration="none" x="181" y="194.5">-voltage: int</text></g></g><g transform="translate(10,-54) scale(1,1)"><g><path fill="none" stroke="none"/><text fill="#000000" stroke="none" font-family="Arial" font-size="13px" font-style="normal" font-weight="normal" text-decoration="none" x="181" y="217.5">+get_current_reading(): int</text></g></g><g transform="translate(10,-54) scale(1,1)"><rect fill="#C0C0C0" stroke="none" x="111" y="575" width="159" height="160" opacity="0.2"/></g><g transform="translate(10,-54) scale(1,1)"><rect fill="#ffffff" stroke="none" x="104" y="568" width="159" height="160"/></g><g transform="translate(10,-54) scale(1,1)"><path fill="none" stroke="#000000" d="M 104 568 L 263 568 L 263 728 L 104 728 L 104 568 Z Z" stroke-miterlimit="10"/></g><g transform="translate(10,-54) scale(1,1)"><path fill="none" stroke="#000000" d="M 104 593 L 263 593" stroke-miterlimit="10"/></g><g transform="translate(10,-54) scale(1,1)"><path fill="none" stroke="#000000" d="M 104 661 L 263 661" stroke-miterlimit="10"/></g><g transform="translate(10,-54) scale(1,1)"><g><path fill="none" stroke="none"/><text fill="#000000" stroke="none" font-family="Arial" font-size="13px" font-style="normal" font-weight="bold" text-decoration="none" x="165.4345703125" y="587.5">Graph</text></g></g><g transform="translate(10,-54) scale(1,1)"><g><path fill="none" stroke="none"/><text fill="#000000" stroke="none" font-family="Arial" font-size="13px" font-style="normal" font-weight="normal" text-decoration="none" x="109" y="610.5">-current_x: int</text></g></g><g transform="translate(10,-54) scale(1,1)"><g><path fill="none" stroke="none"/><text fill="#000000" stroke="none" font-family="Arial" font-size="13px" font-style="normal" font-weight="normal" text-decoration="none" x="109" y="625.5">-current_y: int</text></g></g><g transform="translate(10,-54) scale(1,1)"><g><path fill="none" stroke="none"/><text fill="#000000" stroke="none" font-family="Arial" font-size="13px" font-style="normal" font-weight="normal" text-decoration="none" x="109" y="640.5">-prev_x: int</text></g></g><g transform="translate(10,-54) scale(1,1)"><g><path fill="none" stroke="none"/><text fill="#000000" stroke="none" font-family="Arial" font-size="13px" font-style="normal" font-weight="normal" text-decoration="none" x="109" y="655.5">-prev_y: int</text></g></g><g transform="translate(10,-54) scale(1,1)"><g><path fill="none" stroke="none"/><text fill="#000000" stroke="none" font-family="Arial" font-size="13px" font-style="normal" font-weight="normal" text-decoration="none" x="109" y="678.5">+clear()</text></g></g><g transform="translate(10,-54) scale(1,1)"><g><path fill="none" stroke="none"/><text fill="#000000" stroke="none" font-family="Arial" font-size="13px" font-style="normal" font-weight="normal" text-decoration="none" x="109" y="693.5">+plot_next(x: int, y: int)</text></g></g><g transform="translate(10,-54) scale(1,1)"><g><path fill="none" stroke="none"/><text fill="#000000" stroke="none" font-family="Arial" font-size="13px" font-style="normal" font-weight="normal" text-decoration="none" x="109" y="708.5">+stop_plot()</text></g></g><g transform="translate(10,-54) scale(1,1)"><g><path fill="none" stroke="none"/><text fill="#000000" stroke="none" font-family="Arial" font-size="13px" font-style="normal" font-weight="normal" text-decoration="none" x="109" y="723.5">+print()</text></g></g><g transform="translate(10,-54) scale(1,1)"><rect fill="#C0C0C0" stroke="none" x="479" y="71" width="224.693359375" height="235" opacity="0.2"/></g><g transform="translate(10,-54) scale(1,1)"><rect fill="#ffffff" stroke="none" x="472" y="64" width="224.693359375" height="235"/></g><g transform="translate(10,-54) scale(1,1)"><path fill="none" stroke="#000000" d="M 472 64 L 696.693359375 64 L 696.693359375 299 L 472 299 L 472 64 Z Z" stroke-miterlimit="10"/></g><g transform="translate(10,-54) scale(1,1)"><path fill="none" stroke="#000000" d="M 472 89 L 696.693359375 89" stroke-miterlimit="10"/></g><g transform="translate(10,-54) scale(1,1)"><path fill="none" stroke="#000000" d="M 472 187 L 696.693359375 187" stroke-miterlimit="10"/></g><g transform="translate(10,-54) scale(1,1)"><g><path fill="none" stroke="none"/><text fill="#000000" stroke="none" font-family="Arial" font-size="13px" font-style="normal" font-weight="bold" text-decoration="none" x="567.731689453125" y="83.5">Motor</text></g></g><g transform="translate(10,-54) scale(1,1)"><g><path fill="none" stroke="none"/><text fill="#000000" stroke="none" font-family="Arial" font-size="13px" font-style="normal" font-weight="normal" text-decoration="none" x="477" y="106.5">-speed: int</text></g></g><g transform="translate(10,-54) scale(1,1)"><g><path fill="none" stroke="none"/><text fill="#000000" stroke="none" font-family="Arial" font-size="13px" font-style="normal" font-weight="normal" text-decoration="none" x="477" y="121.5">-state: int</text></g></g><g transform="translate(10,-54) scale(1,1)"><g><path fill="none" stroke="none"/><text fill="#000000" stroke="none" font-family="Arial" font-size="13px" font-style="normal" font-weight="normal" text-decoration="none" x="477" y="136.5">-no_of_cycles: int</text></g></g><g transform="translate(10,-54) scale(1,1)"><g><path fill="none" stroke="none"/><text fill="#000000" stroke="none" font-family="Arial" font-size="13px" font-style="normal" font-weight="normal" text-decoration="none" x="477" y="151.5">-direction: int</text></g></g><g transform="translate(10,-54) scale(1,1)"><g><path fill="none" stroke="none"/><text fill="#000000" stroke="none" font-family="Arial" font-size="13px" font-style="normal" font-weight="normal" text-decoration="none" x="477" y="166.5">-current_cycle: int</text></g></g><g transform="translate(10,-54) scale(1,1)"><g><path fill="none" stroke="none"/><text fill="#000000" stroke="none" font-family="Arial" font-size="13px" font-style="normal" font-weight="normal" text-decoration="none" x="477" y="181.5">-position: int</text></g></g><g transform="translate(10,-54) scale(1,1)"><g><path fill="none" stroke="none"/><text fill="#000000" stroke="none" font-family="Arial" font-size="13px" font-style="normal" font-weight="normal" text-decoration="none" x="477" y="204.5">+change_speed(new_speed: int)</text></g></g><g transform="translate(10,-54) scale(1,1)"><g><path fill="none" stroke="none"/><text fill="#000000" stroke="none" font-family="Arial" font-size="13px" font-style="normal" font-weight="normal" text-decoration="none" x="477" y="219.5">+stop()</text></g></g><g transform="translate(10,-54) scale(1,1)"><g><path fill="none" stroke="none"/><text fill="#000000" stroke="none" font-family="Arial" font-size="13px" font-style="normal" font-weight="normal" text-decoration="none" x="477" y="234.5">+start()</text></g></g><g transform="translate(10,-54) scale(1,1)"><g><path fill="none" stroke="none"/><text fill="#000000" stroke="none" font-family="Arial" font-size="13px" font-style="normal" font-weight="normal" text-decoration="none" x="477" y="249.5">+change_direction()</text></g></g><g transform="translate(10,-54) scale(1,1)"><g><path fill="none" stroke="none"/><text fill="#000000" stroke="none" font-family="Arial" font-size="13px" font-style="normal" font-weight="normal" text-decoration="none" x="477" y="264.5">+automatic_control(no_of_cycles: int)</text></g></g><g transform="translate(10,-54) scale(1,1)"><g><path fill="none" stroke="none"/><text fill="#000000" stroke="none" font-family="Arial" font-size="13px" font-style="normal" font-weight="normal" text-decoration="none" x="477" y="279.5">+get_motor_position(): int</text></g></g><g transform="translate(10,-54) scale(1,1)"><rect fill="#C0C0C0" stroke="none" x="287" y="359" width="239" height="145" opacity="0.2"/></g><g transform="translate(10,-54) scale(1,1)"><rect fill="#ffffff" stroke="none" x="280" y="352" width="239" height="145"/></g><g transform="translate(10,-54) scale(1,1)"><path fill="none" stroke="#000000" d="M 280 352 L 519 352 L 519 497 L 280 497 L 280 352 Z Z" stroke-miterlimit="10"/></g><g transform="translate(10,-54) scale(1,1)"><path fill="none" stroke="#000000" d="M 280 377 L 519 377" stroke-miterlimit="10"/></g><g transform="translate(10,-54) scale(1,1)"><path fill="none" stroke="#000000" d="M 280 475 L 519 475" stroke-miterlimit="10"/></g><g transform="translate(10,-54) scale(1,1)"><g><path fill="none" stroke="none"/><text fill="#000000" stroke="none" font-family="Arial" font-size="13px" font-style="normal" font-weight="bold" text-decoration="none" x="385.4208984375" y="371.5">UTM</text></g></g><g transform="translate(10,-54) scale(1,1)"><g><path fill="none" stroke="none"/><text fill="#000000" stroke="none" font-family="Arial" font-size="13px" font-style="normal" font-weight="normal" text-decoration="none" x="285" y="394.5">+stress: int</text></g></g><g transform="translate(10,-54) scale(1,1)"><g><path fill="none" stroke="none"/><text fill="#000000" stroke="none" font-family="Arial" font-size="13px" font-style="normal" font-weight="normal" text-decoration="none" x="285" y="409.5">+strain: int</text></g></g><g transform="translate(10,-54) scale(1,1)"><g><path fill="none" stroke="none"/><text fill="#000000" stroke="none" font-family="Arial" font-size="13px" font-style="normal" font-weight="normal" text-decoration="none" x="285" y="424.5">+force: int</text></g></g><g transform="translate(10,-54) scale(1,1)"><g><path fill="none" stroke="none"/><text fill="#000000" stroke="none" font-family="Arial" font-size="13px" font-style="normal" font-weight="normal" text-decoration="none" x="285" y="439.5">+deformation: int</text></g></g><g transform="translate(10,-54) scale(1,1)"><g><path fill="none" stroke="none"/><text fill="#000000" stroke="none" font-family="Arial" font-size="13px" font-style="normal" font-weight="normal" text-decoration="none" x="285" y="454.5">+position_of_motor: int</text></g></g><g transform="translate(10,-54) scale(1,1)"><g><path fill="none" stroke="none"/><text fill="#000000" stroke="none" font-family="Arial" font-size="13px" font-style="normal" font-weight="normal" text-decoration="none" x="285" y="469.5">+index: int</text></g></g><g transform="translate(10,-54) scale(1,1)"><g><path fill="none" stroke="none"/><text fill="#000000" stroke="none" font-family="Arial" font-size="13px" font-style="normal" font-weight="normal" text-decoration="none" x="285" y="492.5">+update()</text></g></g><g transform="translate(10,-54) scale(1,1)"><rect fill="#C0C0C0" stroke="none" x="511" y="599" width="199" height="96" opacity="0.2"/></g><g transform="translate(10,-54) scale(1,1)"><rect fill="#ffffff" stroke="none" x="504" y="592" width="199" height="96"/></g><g transform="translate(10,-54) scale(1,1)"><path fill="none" stroke="#000000" d="M 504 592 L 703 592 L 703 688 L 504 688 L 504 592 Z Z" stroke-miterlimit="10"/></g><g transform="translate(10,-54) scale(1,1)"><path fill="none" stroke="#000000" d="M 504 617 L 703 617" stroke-miterlimit="10"/></g><g transform="translate(10,-54) scale(1,1)"><path fill="none" stroke="#000000" d="M 504 640 L 703 640" stroke-miterlimit="10"/></g><g transform="translate(10,-54) scale(1,1)"><g><path fill="none" stroke="none"/><text fill="#000000" stroke="none" font-family="Arial" font-size="13px" font-style="normal" font-weight="bold" text-decoration="none" x="584.714111328125" y="611.5">Export</text></g></g><g transform="translate(10,-54) scale(1,1)"><g><path fill="none" stroke="none"/><text fill="#000000" stroke="none" font-family="Arial" font-size="13px" font-style="normal" font-weight="normal" text-decoration="none" x="509" y="634.5">+path: string</text></g></g><g transform="translate(10,-54) scale(1,1)"><g><path fill="none" stroke="none"/><text fill="#000000" stroke="none" font-family="Arial" font-size="13px" font-style="normal" font-weight="normal" text-decoration="none" x="509" y="657.5">+write_next(data)</text></g></g><g transform="translate(10,-54) scale(1,1)"><g><path fill="none" stroke="none"/><text fill="#000000" stroke="none" font-family="Arial" font-size="13px" font-style="normal" font-weight="normal" text-decoration="none" x="509" y="672.5">+finish_export(): string</text></g></g><g transform="translate(10,-54) scale(1,1)"><rect fill="#C0C0C0" stroke="none" x="7" y="279" width="159" height="88" opacity="0.2"/></g><g transform="translate(10,-54) scale(1,1)"><rect fill="#ffffff" stroke="none" x="0" y="272" width="159" height="88"/></g><g transform="translate(10,-54) scale(1,1)"><path fill="none" stroke="#000000" d="M 0 272 L 159 272 L 159 360 L 0 360 L 0 272 Z Z" stroke-miterlimit="10"/></g><g transform="translate(10,-54) scale(1,1)"><path fill="none" stroke="#000000" d="M 0 297 L 159 297" stroke-miterlimit="10"/></g><g transform="translate(10,-54) scale(1,1)"><path fill="none" stroke="#000000" d="M 0 350 L 159 350" stroke-miterlimit="10"/></g><g transform="translate(10,-54) scale(1,1)"><g><path fill="none" stroke="none"/><text fill="#000000" stroke="none" font-family="Arial" font-size="13px" font-style="normal" font-weight="bold" text-decoration="none" x="56.3818359375" y="291.5">Material</text></g></g><g transform="translate(10,-54) scale(1,1)"><g><path fill="none" stroke="none"/><text fill="#000000" stroke="none" font-family="Arial" font-size="13px" font-style="normal" font-weight="normal" text-decoration="none" x="5" y="314.5">+length: int</text></g></g><g transform="translate(10,-54) scale(1,1)"><g><path fill="none" stroke="none"/><text fill="#000000" stroke="none" font-family="Arial" font-size="13px" font-style="normal" font-weight="normal" text-decoration="none" x="5" y="329.5">+area: int</text></g></g><g transform="translate(10,-54) scale(1,1)"><g><path fill="none" stroke="none"/><text fill="#000000" stroke="none" font-family="Arial" font-size="13px" font-style="normal" font-weight="normal" text-decoration="none" x="5" y="344.5">+name: string</text></g></g><g transform="translate(10,-54) scale(1,1)"><path fill="none" stroke="#000000" d="M 279 384 L 160 343" stroke-miterlimit="10"/></g><g transform="translate(10,-54) scale(1,1)"><path fill="none" stroke="#000000" d="M 170.97960877634333 342.3305292251004 L 160 343 L 168.2371431452654 350.29036849579" stroke-miterlimit="10"/></g><g transform="translate(10,-54) scale(1,1)"><g><path fill="none" stroke="none"/><text fill="#000000" stroke="none" font-family="Arial" font-size="13px" font-style="normal" font-weight="normal" text-decoration="none" x="94.5" y="380.5">+material_under_test</text></g></g><g transform="translate(10,-54) scale(1,1)"><g><path fill="none" stroke="none"/><text fill="#000000" stroke="none" font-family="Arial" font-size="13px" font-style="normal" font-weight="normal" text-decoration="none" x="179.885009765625" y="344.5">1</text></g></g><g transform="translate(10,-54) scale(1,1)"><path fill="none" stroke="#000000" d="M 328 498 L 261 567" stroke-miterlimit="10"/></g><g transform="translate(10,-54) scale(1,1)"><path fill="#FFFFFF" stroke="none" d="M 265.0596277053154 556.7765258891982 L 261 567 L 271.0996781505544 562.6415024084882 L 276.32592221994787 551.2165875645313"/></g><g transform="translate(10,-54) scale(1,1)"><path fill="none" stroke="#000000" d="M 265.0596277053154 556.7765258891982 L 261 567 L 271.0996781505544 562.6415024084882 L 276.32592221994787 551.2165875645313 L 265.0596277053154 556.7765258891982" stroke-miterlimit="10"/></g><g transform="translate(10,-54) scale(1,1)"><g><path fill="none" stroke="none"/><text fill="#000000" stroke="none" font-family="Arial" font-size="13px" font-style="normal" font-weight="normal" text-decoration="none" x="293.5" y="539.5">+stress_strain , load_deformation</text></g></g><g transform="translate(10,-54) scale(1,1)"><g><path fill="none" stroke="none"/><text fill="#000000" stroke="none" font-family="Arial" font-size="13px" font-style="normal" font-weight="normal" text-decoration="none" x="263.5" y="548.5">2</text></g></g><g transform="translate(10,-54) scale(1,1)"><path fill="none" stroke="#000000" d="M 469 498 L 557 591" stroke-miterlimit="10"/></g><g transform="translate(10,-54) scale(1,1)"><path fill="#FFFFFF" stroke="none" d="M 546.9574411832505 586.5114576517395 L 557 591 L 553.0727172923097 580.7249598281137 L 541.8791524946255 575.0200134318201"/></g><g transform="translate(10,-54) scale(1,1)"><path fill="none" stroke="#000000" d="M 546.9574411832505 586.5114576517395 L 557 591 L 553.0727172923097 580.7249598281137 L 541.8791524946255 575.0200134318201 L 546.9574411832505 586.5114576517395" stroke-miterlimit="10"/></g><g transform="translate(10,-54) scale(1,1)"><g><path fill="none" stroke="none"/><text fill="#000000" stroke="none" font-family="Arial" font-size="13px" font-style="normal" font-weight="normal" text-decoration="none" x="537.5" y="570.5">+excel_file</text></g></g><g transform="translate(10,-54) scale(1,1)"><g><path fill="none" stroke="none"/><text fill="#000000" stroke="none" font-family="Arial" font-size="13px" font-style="normal" font-weight="normal" text-decoration="none" x="529.5" y="589.5">1</text></g></g><g transform="translate(10,-54) scale(1,1)"><path fill="none" stroke="#000000" d="M 354 351 L 282 233" stroke-miterlimit="10"/></g><g transform="translate(10,-54) scale(1,1)"><path fill="#FFFFFF" stroke="none" d="M 290.8867877461702 239.48266947750065 L 282 233 L 283.69996833055075 243.86784742601424 L 293.45902220384085 251.78006416740587"/></g><g transform="translate(10,-54) scale(1,1)"><path fill="none" stroke="#000000" d="M 290.8867877461702 239.48266947750065 L 282 233 L 283.69996833055075 243.86784742601424 L 293.45902220384085 251.78006416740587 L 290.8867877461702 239.48266947750065" stroke-miterlimit="10"/></g><g transform="translate(10,-54) scale(1,1)"><g><path fill="none" stroke="none"/><text fill="#000000" stroke="none" font-family="Arial" font-size="13px" font-style="normal" font-weight="normal" text-decoration="none" x="174.5" y="260.5">+amplified_loadcell</text></g></g><g transform="translate(10,-54) scale(1,1)"><g><path fill="none" stroke="none"/><text fill="#000000" stroke="none" font-family="Arial" font-size="13px" font-style="normal" font-weight="normal" text-decoration="none" x="299.5" y="250.5">1</text></g></g><g transform="translate(10,-54) scale(1,1)"><path fill="none" stroke="#000000" d="M 455 351 L 493 300" stroke-miterlimit="10"/></g><g transform="translate(10,-54) scale(1,1)"><path fill="#FFFFFF" stroke="none" d="M 490.3035315866516 310.66438268704826 L 493 300 L 483.5524515844858 305.6341662148463 L 479.8554109042196 317.64142220749477"/></g><g transform="translate(10,-54) scale(1,1)"><path fill="none" stroke="#000000" d="M 490.3035315866516 310.66438268704826 L 493 300 L 483.5524515844858 305.6341662148463 L 479.8554109042196 317.64142220749477 L 490.3035315866516 310.66438268704826" stroke-miterlimit="10"/></g><g transform="translate(10,-54) scale(1,1)"><g><path fill="none" stroke="none"/><text fill="#000000" stroke="none" font-family="Arial" font-size="13px" font-style="normal" font-weight="normal" text-decoration="none" x="368.5" y="315.5">+motor_controller</text></g></g><g transform="translate(10,-54) scale(1,1)"><g><path fill="none" stroke="none"/><text fill="#000000" stroke="none" font-family="Arial" font-size="13px" font-style="normal" font-weight="normal" text-decoration="none" x="486.5" y="330.5">1</text></g></g><g transform="translate(10,-54) scale(1,1)"><path fill="none" stroke="#000000" d="M 520 419 L 623 414" stroke-miterlimit="10"/></g><g transform="translate(10,-54) scale(1,1)"><path fill="#FFFFFF" stroke="none" d="M 613.0533833186274 418.69732015023885 L 623 414 L 612.6451729631001 410.2881868263763 L 601.0258756646668 415.066705064822"/></g><g transform="translate(10,-54) scale(1,1)"><path fill="none" stroke="#000000" d="M 613.0533833186274 418.69732015023885 L 623 414 L 612.6451729631001 410.2881868263763 L 601.0258756646668 415.066705064822 L 613.0533833186274 418.69732015023885" stroke-miterlimit="10"/></g><g transform="translate(10,-54) scale(1,1)"><g><path fill="none" stroke="none"/><text fill="#000000" stroke="none" font-family="Arial" font-size="13px" font-style="normal" font-weight="normal" text-decoration="none" x="581.5" y="406.5">+unp</text></g></g><g transform="translate(10,-54) scale(1,1)"><g><path fill="none" stroke="none"/><text fill="#000000" stroke="none" font-family="Arial" font-size="13px" font-style="normal" font-weight="normal" text-decoration="none" x="597.5" y="433.5">1</text></g></g><g transform="translate(10,-54) scale(1,1)"><g><path fill="none" stroke="none"/><text fill="#000000" stroke="none" font-family="Arial" font-size="13px" font-style="normal" font-weight="normal" text-decoration="none" x="141" y="434">UTM is the main</text><text fill="#000000" stroke="none" font-family="Arial" font-size="13px" font-style="normal" font-weight="normal" text-decoration="none" x="141" y="447">controlling class of</text><text fill="#000000" stroke="none" font-family="Arial" font-size="13px" font-style="normal" font-weight="normal" text-decoration="none" x="141" y="460">our software platform</text><text fill="#000000" stroke="none" font-family="Arial" font-size="13px" font-style="normal" font-weight="normal" text-decoration="none" x="141" y="473">for the Universal</text><text fill="#000000" stroke="none" font-family="Arial" font-size="13px" font-style="normal" font-weight="normal" text-decoration="none" x="141" y="486">Testing Machine</text></g></g></g></svg>