<svg version="1.1" xmlns="http://www.w3.org/2000/svg" xmlns:xlink="http://www.w3.org/1999/xlink" width="880.44091796875" height="576"><defs/><g><g transform="translate(-46,-182) scale(1,1)"><rect fill="#C0C0C0" stroke="none" x="361" y="711" width="98.44091796875" height="44" opacity="0.2"/></g><g transform="translate(-46,-182) scale(1,1)"><rect fill="#ffffff" stroke="none" x="354" y="704" width="98.44091796875" height="44"/></g><g transform="translate(-46,-182) scale(1,1)"><path fill="none" stroke="#000000" d="M 354 704 L 452.44091796875 704 L 452.44091796875 748 L 354 748 L 354 704 Z Z" stroke-miterlimit="10"/></g><g transform="translate(-46,-182) scale(1,1)"><rect fill="#ffffff" stroke="none" x="344" y="711" width="20" height="10"/></g><g transform="translate(-46,-182) scale(1,1)"><path fill="none" stroke="#000000" d="M 344 711 L 364 711 L 364 721 L 344 721 L 344 711 Z Z" stroke-miterlimit="10"/></g><g transform="translate(-46,-182) scale(1,1)"><rect fill="#ffffff" stroke="none" x="344" y="731" width="20" height="10"/></g><g transform="translate(-46,-182) scale(1,1)"><path fill="none" stroke="#000000" d="M 344 731 L 364 731 L 364 741 L 344 741 L 344 731 Z Z" stroke-miterlimit="10"/></g><g transform="translate(-46,-182) scale(1,1)"><g><path fill="none" stroke="none"/><text fill="#000000" stroke="none" font-family="Arial" font-size="13px" font-style="normal" font-weight="bold" text-decoration="none" x="390.155029296875" y="723.5">Graph</text></g></g><g transform="translate(-46,-182) scale(1,1)"><rect fill="#C0C0C0" stroke="none" x="561" y="679" width="98.44091796875" height="44" opacity="0.2"/></g><g transform="translate(-46,-182) scale(1,1)"><rect fill="#ffffff" stroke="none" x="554" y="672" width="98.44091796875" height="44"/></g><g transform="translate(-46,-182) scale(1,1)"><path fill="none" stroke="#000000" d="M 554 672 L 652.44091796875 672 L 652.44091796875 716 L 554 716 L 554 672 Z Z" stroke-miterlimit="10"/></g><g transform="translate(-46,-182) scale(1,1)"><rect fill="#ffffff" stroke="none" x="544" y="679" width="20" height="10"/></g><g transform="translate(-46,-182) scale(1,1)"><path fill="none" stroke="#000000" d="M 544 679 L 564 679 L 564 689 L 544 689 L 544 679 Z Z" stroke-miterlimit="10"/></g><g transform="translate(-46,-182) scale(1,1)"><rect fill="#ffffff" stroke="none" x="544" y="699" width="20" height="10"/></g><g transform="translate(-46,-182) scale(1,1)"><path fill="none" stroke="#000000" d="M 544 699 L 564 699 L 564 709 L 544 709 L 544 699 Z Z" stroke-miterlimit="10"/></g><g transform="translate(-46,-182) scale(1,1)"><g><path fill="none" stroke="none"/><text fill="#000000" stroke="none" font-family="Arial" font-size="13px" font-style="normal" font-weight="bold" text-decoration="none" x="589.4345703125" y="691.5">Export</text></g></g><g transform="translate(-46,-182) scale(1,1)"><rect fill="#C0C0C0" stroke="none" x="457" y="199" width="146.8291015625" height="44" opacity="0.2"/></g><g transform="translate(-46,-182) scale(1,1)"><rect fill="#ffffff" stroke="none" x="450" y="192" width="146.8291015625" height="44"/></g><g transform="translate(-46,-182) scale(1,1)"><path fill="none" stroke="#000000" d="M 450 192 L 596.8291015625 192 L 596.8291015625 236 L 450 236 L 450 192 Z Z" stroke-miterlimit="10"/></g><g transform="translate(-46,-182) scale(1,1)"><rect fill="#ffffff" stroke="none" x="440" y="199" width="20" height="10"/></g><g transform="translate(-46,-182) scale(1,1)"><path fill="none" stroke="#000000" d="M 440 199 L 460 199 L 460 209 L 440 209 L 440 199 Z Z" stroke-miterlimit="10"/></g><g transform="translate(-46,-182) scale(1,1)"><rect fill="#ffffff" stroke="none" x="440" y="219" width="20" height="10"/></g><g transform="translate(-46,-182) scale(1,1)"><path fill="none" stroke="#000000" d="M 440 219 L 460 219 L 460 229 L 440 229 L 440 219 Z Z" stroke-miterlimit="10"/></g><g transform="translate(-46,-182) scale(1,1)"><g><path fill="none" stroke="none"/><text fill="#000000" stroke="none" font-family="Arial" font-size="13px" font-style="normal" font-weight="bold" text-decoration="none" x="469.517822265625" y="211.5">Software on Arduino</text></g></g><g transform="translate(-46,-182) scale(1,1)"><rect fill="#C0C0C0" stroke="none" x="497" y="447" width="128.7763671875" height="44" opacity="0.2"/></g><g transform="translate(-46,-182) scale(1,1)"><rect fill="#ffffff" stroke="none" x="490" y="440" width="128.7763671875" height="44"/></g><g transform="translate(-46,-182) scale(1,1)"><path fill="none" stroke="#000000" d="M 490 440 L 618.7763671875 440 L 618.7763671875 484 L 490 484 L 490 440 Z Z" stroke-miterlimit="10"/></g><g transform="translate(-46,-182) scale(1,1)"><rect fill="#ffffff" stroke="none" x="480" y="447" width="20" height="10"/></g><g transform="translate(-46,-182) scale(1,1)"><path fill="none" stroke="#000000" d="M 480 447 L 500 447 L 500 457 L 480 457 L 480 447 Z Z" stroke-miterlimit="10"/></g><g transform="translate(-46,-182) scale(1,1)"><rect fill="#ffffff" stroke="none" x="480" y="467" width="20" height="10"/></g><g transform="translate(-46,-182) scale(1,1)"><path fill="none" stroke="#000000" d="M 480 467 L 500 467 L 500 477 L 480 477 L 480 467 Z Z" stroke-miterlimit="10"/></g><g transform="translate(-46,-182) scale(1,1)"><g><path fill="none" stroke="none"/><text fill="#000000" stroke="none" font-family="Arial" font-size="13px" font-style="normal" font-weight="bold" text-decoration="none" x="508.09912109375" y="459.5">UTM main control</text></g></g><g transform="translate(-46,-182) scale(1,1)"><rect fill="#C0C0C0" stroke="none" x="825" y="295" width="98.44091796875" height="44" opacity="0.2"/></g><g transform="translate(-46,-182) scale(1,1)"><rect fill="#ffffff" stroke="none" x="818" y="288" width="98.44091796875" height="44"/></g><g transform="translate(-46,-182) scale(1,1)"><path fill="none" stroke="#000000" d="M 818 288 L 916.44091796875 288 L 916.44091796875 332 L 818 332 L 818 288 Z Z" stroke-miterlimit="10"/></g><g transform="translate(-46,-182) scale(1,1)"><rect fill="#ffffff" stroke="none" x="808" y="295" width="20" height="10"/></g><g transform="translate(-46,-182) scale(1,1)"><path fill="none" stroke="#000000" d="M 808 295 L 828 295 L 828 305 L 808 305 L 808 295 Z Z" stroke-miterlimit="10"/></g><g transform="translate(-46,-182) scale(1,1)"><rect fill="#ffffff" stroke="none" x="808" y="315" width="20" height="10"/></g><g transform="translate(-46,-182) scale(1,1)"><path fill="none" stroke="#000000" d="M 808 315 L 828 315 L 828 325 L 808 325 L 808 315 Z Z" stroke-miterlimit="10"/></g><g transform="translate(-46,-182) scale(1,1)"><g><path fill="none" stroke="none"/><text fill="#000000" stroke="none" font-family="Arial" font-size="13px" font-style="normal" font-weight="bold" text-decoration="none" x="855.60546875" y="307.5">Motor</text></g></g><g transform="translate(-46,-182) scale(1,1)"><rect fill="#C0C0C0" stroke="none" x="209" y="247" width="98.44091796875" height="44" opacity="0.2"/></g><g transform="translate(-46,-182) scale(1,1)"><rect fill="#ffffff" stroke="none" x="202" y="240" width="98.44091796875" height="44"/></g><g transform="translate(-46,-182) scale(1,1)"><path fill="none" stroke="#000000" d="M 202 240 L 300.44091796875 240 L 300.44091796875 284 L 202 284 L 202 240 Z Z" stroke-miterlimit="10"/></g><g transform="translate(-46,-182) scale(1,1)"><rect fill="#ffffff" stroke="none" x="192" y="247" width="20" height="10"/></g><g transform="translate(-46,-182) scale(1,1)"><path fill="none" stroke="#000000" d="M 192 247 L 212 247 L 212 257 L 192 257 L 192 247 Z Z" stroke-miterlimit="10"/></g><g transform="translate(-46,-182) scale(1,1)"><rect fill="#ffffff" stroke="none" x="192" y="267" width="20" height="10"/></g><g transform="translate(-46,-182) scale(1,1)"><path fill="none" stroke="#000000" d="M 192 267 L 212 267 L 212 277 L 192 277 L 192 267 Z Z" stroke-miterlimit="10"/></g><g transform="translate(-46,-182) scale(1,1)"><g><path fill="none" stroke="none"/><text fill="#000000" stroke="none" font-family="Arial" font-size="13px" font-style="normal" font-weight="bold" text-decoration="none" x="228.75732421875" y="259.5">Load Cell</text></g></g><g transform="translate(-46,-182) scale(1,1)"><rect fill="#C0C0C0" stroke="none" x="129" y="551" width="98.44091796875" height="44" opacity="0.2"/></g><g transform="translate(-46,-182) scale(1,1)"><rect fill="#ffffff" stroke="none" x="122" y="544" width="98.44091796875" height="44"/></g><g transform="translate(-46,-182) scale(1,1)"><path fill="none" stroke="#000000" d="M 122 544 L 220.44091796875 544 L 220.44091796875 588 L 122 588 L 122 544 Z Z" stroke-miterlimit="10"/></g><g transform="translate(-46,-182) scale(1,1)"><rect fill="#ffffff" stroke="none" x="112" y="551" width="20" height="10"/></g><g transform="translate(-46,-182) scale(1,1)"><path fill="none" stroke="#000000" d="M 112 551 L 132 551 L 132 561 L 112 561 L 112 551 Z Z" stroke-miterlimit="10"/></g><g transform="translate(-46,-182) scale(1,1)"><rect fill="#ffffff" stroke="none" x="112" y="571" width="20" height="10"/></g><g transform="translate(-46,-182) scale(1,1)"><path fill="none" stroke="#000000" d="M 112 571 L 132 571 L 132 581 L 112 581 L 112 571 Z Z" stroke-miterlimit="10"/></g><g transform="translate(-46,-182) scale(1,1)"><g><path fill="none" stroke="none"/><text fill="#000000" stroke="none" font-family="Arial" font-size="13px" font-style="normal" font-weight="bold" text-decoration="none" x="164.66455078125" y="563.5">GUI</text></g></g><g transform="translate(-46,-182) scale(1,1)"><path fill="#C0C0C0" stroke="none" d="M 166.7099609375 474.5 C 166.7099609375 468.1487248 171.8586857375 463 178.2099609375 463 C 184.5612361375 463 189.7099609375 468.1487248 189.7099609375 474.5 C 189.7099609375 480.8512752 184.5612361375 486 178.2099609375 486 C 171.8586857375 486 166.7099609375 480.8512752 166.7099609375 474.5 Z" opacity="0.2"/></g><g transform="translate(-46,-182) scale(1,1)"><path fill="#ffffff" stroke="none" d="M 159.7099609375 467.5 C 159.7099609375 461.1487248 164.8586857375 456 171.2099609375 456 C 177.5612361375 456 182.7099609375 461.1487248 182.7099609375 467.5 C 182.7099609375 473.8512752 177.5612361375 479 171.2099609375 479 C 164.8586857375 479 159.7099609375 473.8512752 159.7099609375 467.5 Z"/></g><g transform="translate(-46,-182) scale(1,1)"><path fill="none" stroke="#000000" d="M 159.7099609375 467.5 C 159.7099609375 461.1487248 164.8586857375 456 171.2099609375 456 C 177.5612361375 456 182.7099609375 461.1487248 182.7099609375 467.5 C 182.7099609375 473.8512752 177.5612361375 479 171.2099609375 479 C 164.8586857375 479 159.7099609375 473.8512752 159.7099609375 467.5 Z" stroke-miterlimit="10"/></g><g transform="translate(-46,-182) scale(1,1)"><g><path fill="none" stroke="none"/><text fill="#000000" stroke="none" font-family="Arial" font-size="13px" font-style="normal" font-weight="bold" text-decoration="none" x="149.167724609375" y="498.5">Buttons</text></g></g><g transform="translate(-46,-182) scale(1,1)"><path fill="#C0C0C0" stroke="none" d="M 92.4736328125 490.5 C 92.4736328125 484.1487248 97.6223576125 479 103.9736328125 479 C 110.3249080125 479 115.4736328125 484.1487248 115.4736328125 490.5 C 115.4736328125 496.8512752 110.3249080125 502 103.9736328125 502 C 97.6223576125 502 92.4736328125 496.8512752 92.4736328125 490.5 Z" opacity="0.2"/></g><g transform="translate(-46,-182) scale(1,1)"><path fill="#ffffff" stroke="none" d="M 85.4736328125 483.5 C 85.4736328125 477.1487248 90.6223576125 472 96.9736328125 472 C 103.3249080125 472 108.4736328125 477.1487248 108.4736328125 483.5 C 108.4736328125 489.8512752 103.3249080125 495 96.9736328125 495 C 90.6223576125 495 85.4736328125 489.8512752 85.4736328125 483.5 Z"/></g><g transform="translate(-46,-182) scale(1,1)"><path fill="none" stroke="#000000" d="M 85.4736328125 483.5 C 85.4736328125 477.1487248 90.6223576125 472 96.9736328125 472 C 103.3249080125 472 108.4736328125 477.1487248 108.4736328125 483.5 C 108.4736328125 489.8512752 103.3249080125 495 96.9736328125 495 C 90.6223576125 495 85.4736328125 489.8512752 85.4736328125 483.5 Z" stroke-miterlimit="10"/></g><g transform="translate(-46,-182) scale(1,1)"><g><path fill="none" stroke="none"/><text fill="#000000" stroke="none" font-family="Arial" font-size="13px" font-style="normal" font-weight="bold" text-decoration="none" x="63.365966796875" y="514.5">Input boxes</text></g></g><g transform="translate(-46,-182) scale(1,1)"><path fill="#C0C0C0" stroke="none" d="M 269.812255859375 482.5 C 269.812255859375 476.1487248 274.960980659375 471 281.312255859375 471 C 287.663531059375 471 292.812255859375 476.1487248 292.812255859375 482.5 C 292.812255859375 488.8512752 287.663531059375 494 281.312255859375 494 C 274.960980659375 494 269.812255859375 488.8512752 269.812255859375 482.5 Z" opacity="0.2"/></g><g transform="translate(-46,-182) scale(1,1)"><path fill="none" stroke="#000000" d="M 275.33262804494206 463.5774739004967 A 11.5 11.5 0 0 1 272.66737195505794 486.4225260995033" stroke-miterlimit="10"/></g><g transform="translate(-46,-182) scale(1,1)"><path fill="#ffffff" stroke="none" d="M 265.812255859375 475.5 C 265.812255859375 470.8055792 269.617835059375 467 274.312255859375 467 C 279.006676659375 467 282.812255859375 470.8055792 282.812255859375 475.5 C 282.812255859375 480.1944208 279.006676659375 484 274.312255859375 484 C 269.617835059375 484 265.812255859375 480.1944208 265.812255859375 475.5 Z"/></g><g transform="translate(-46,-182) scale(1,1)"><path fill="none" stroke="#000000" d="M 265.812255859375 475.5 C 265.812255859375 470.8055792 269.617835059375 467 274.312255859375 467 C 279.006676659375 467 282.812255859375 470.8055792 282.812255859375 475.5 C 282.812255859375 480.1944208 279.006676659375 484 274.312255859375 484 C 269.617835059375 484 265.812255859375 480.1944208 265.812255859375 475.5 Z" stroke-miterlimit="10"/></g><g transform="translate(-46,-182) scale(1,1)"><g><path fill="none" stroke="none"/><text fill="#000000" stroke="none" font-family="Arial" font-size="13px" font-style="normal" font-weight="bold" text-decoration="none" x="244.325927734375" y="506.5">User Input</text></g></g><g transform="translate(-46,-182) scale(1,1)"><path fill="#C0C0C0" stroke="none" d="M 638.108642578125 354.5 C 638.108642578125 348.1487248 643.257367378125 343 649.608642578125 343 C 655.959917778125 343 661.108642578125 348.1487248 661.108642578125 354.5 C 661.108642578125 360.8512752 655.959917778125 366 649.608642578125 366 C 643.257367378125 366 638.108642578125 360.8512752 638.108642578125 354.5 Z" opacity="0.2"/></g><g transform="translate(-46,-182) scale(1,1)"><path fill="none" stroke="#000000" d="M 641.4931400866861 335.51117529821806 A 11.5 11.5 0 0 1 642.5068599133139 358.48882470178194" stroke-miterlimit="10"/></g><g transform="translate(-46,-182) scale(1,1)"><path fill="#ffffff" stroke="none" d="M 634.108642578125 347.5 C 634.108642578125 342.8055792 637.914221778125 339 642.608642578125 339 C 647.303063378125 339 651.108642578125 342.8055792 651.108642578125 347.5 C 651.108642578125 352.1944208 647.303063378125 356 642.608642578125 356 C 637.914221778125 356 634.108642578125 352.1944208 634.108642578125 347.5 Z"/></g><g transform="translate(-46,-182) scale(1,1)"><path fill="none" stroke="#000000" d="M 634.108642578125 347.5 C 634.108642578125 342.8055792 637.914221778125 339 642.608642578125 339 C 647.303063378125 339 651.108642578125 342.8055792 651.108642578125 347.5 C 651.108642578125 352.1944208 647.303063378125 356 642.608642578125 356 C 637.914221778125 356 634.108642578125 352.1944208 634.108642578125 347.5 Z" stroke-miterlimit="10"/></g><g transform="translate(-46,-182) scale(1,1)"><g><path fill="none" stroke="none"/><text fill="#000000" stroke="none" font-family="Arial" font-size="13px" font-style="normal" font-weight="bold" text-decoration="none" x="586.61279296875" y="378.5">Control Instructions</text></g></g><g transform="translate(-46,-182) scale(1,1)"><path fill="#C0C0C0" stroke="none" d="M 710.108642578125 242.5 C 710.108642578125 236.1487248 715.257367378125 231 721.608642578125 231 C 727.959917778125 231 733.108642578125 236.1487248 733.108642578125 242.5 C 733.108642578125 248.8512752 727.959917778125 254 721.608642578125 254 C 715.257367378125 254 710.108642578125 248.8512752 710.108642578125 242.5 Z" opacity="0.2"/></g><g transform="translate(-46,-182) scale(1,1)"><path fill="none" stroke="#000000" d="M 714.1716226761952 246.49871930507982 A 11.5 11.5 0 1 1 713.8283773238048 223.50128069492018" stroke-miterlimit="10"/></g><g transform="translate(-46,-182) scale(1,1)"><path fill="#ffffff" stroke="none" d="M 706.108642578125 235.5 C 706.108642578125 230.8055792 709.914221778125 227 714.608642578125 227 C 719.303063378125 227 723.108642578125 230.8055792 723.108642578125 235.5 C 723.108642578125 240.1944208 719.303063378125 244 714.608642578125 244 C 709.914221778125 244 706.108642578125 240.1944208 706.108642578125 235.5 Z"/></g><g transform="translate(-46,-182) scale(1,1)"><path fill="none" stroke="#000000" d="M 706.108642578125 235.5 C 706.108642578125 230.8055792 709.914221778125 227 714.608642578125 227 C 719.303063378125 227 723.108642578125 230.8055792 723.108642578125 235.5 C 723.108642578125 240.1944208 719.303063378125 244 714.608642578125 244 C 709.914221778125 244 706.108642578125 240.1944208 706.108642578125 235.5 Z" stroke-miterlimit="10"/></g><g transform="translate(-46,-182) scale(1,1)"><g><path fill="none" stroke="none"/><text fill="#000000" stroke="none" font-family="Arial" font-size="13px" font-style="normal" font-weight="bold" text-decoration="none" x="658.61279296875" y="266.5">Control Instructions</text></g></g><g transform="translate(-46,-182) scale(1,1)"><path fill="none" stroke="#000000" d="M 807 323 L 654.108642578125 346.46579518037686" stroke-miterlimit="10"/></g><g transform="translate(-46,-182) scale(1,1)"><path fill="none" stroke="#000000" d="M 570 439 L 634.7368421052631 359" stroke-miterlimit="10"/></g><g transform="translate(-46,-182) scale(1,1)"><path fill="none" stroke="#000000" d="M 598 228 L 703.108642578125 235.16255757346082" stroke-miterlimit="10"/></g><g transform="translate(-46,-182) scale(1,1)"><path fill="none" stroke="#000000" d="M 807 287 L 726.108642578125 242.66880696614584" stroke-miterlimit="10"/></g><g transform="translate(-46,-182) scale(1,1)"><path fill="#C0C0C0" stroke="none" d="M 356.37451171875 402.5 C 356.37451171875 396.1487248 361.52323651875 391 367.87451171875 391 C 374.22578691875 391 379.37451171875 396.1487248 379.37451171875 402.5 C 379.37451171875 408.8512752 374.22578691875 414 367.87451171875 414 C 361.52323651875 414 356.37451171875 408.8512752 356.37451171875 402.5 Z" opacity="0.2"/></g><g transform="translate(-46,-182) scale(1,1)"><path fill="none" stroke="#000000" d="M 365.21233677832794 384.74907100262175 A 11.5 11.5 0 0 1 354.78766322167206 405.25092899737825" stroke-miterlimit="10"/></g><g transform="translate(-46,-182) scale(1,1)"><path fill="#ffffff" stroke="none" d="M 352.37451171875 395.5 C 352.37451171875 390.8055792 356.18009091875 387 360.87451171875 387 C 365.56893251875 387 369.37451171875 390.8055792 369.37451171875 395.5 C 369.37451171875 400.1944208 365.56893251875 404 360.87451171875 404 C 356.18009091875 404 352.37451171875 400.1944208 352.37451171875 395.5 Z"/></g><g transform="translate(-46,-182) scale(1,1)"><path fill="none" stroke="#000000" d="M 352.37451171875 395.5 C 352.37451171875 390.8055792 356.18009091875 387 360.87451171875 387 C 365.56893251875 387 369.37451171875 390.8055792 369.37451171875 395.5 C 369.37451171875 400.1944208 365.56893251875 404 360.87451171875 404 C 356.18009091875 404 352.37451171875 400.1944208 352.37451171875 395.5 Z" stroke-miterlimit="10"/></g><g transform="translate(-46,-182) scale(1,1)"><g><path fill="none" stroke="none"/><text fill="#000000" stroke="none" font-family="Arial" font-size="13px" font-style="normal" font-weight="bold" text-decoration="none" x="312.089599609375" y="426.5">Voltage readings</text></g></g><g transform="translate(-46,-182) scale(1,1)"><path fill="none" stroke="#000000" d="M 264 285 L 349.37451171875 388.62470703125" stroke-miterlimit="10"/></g><g transform="translate(-46,-182) scale(1,1)"><path fill="none" stroke="#000000" d="M 479 442 L 372.37451171875 401.29212460275426" stroke-miterlimit="10"/></g><g transform="translate(-46,-182) scale(1,1)"><path fill="none" stroke="#000000" d="M 143 543 L 103.89473684210526 495" stroke-miterlimit="10"/></g><g transform="translate(-46,-182) scale(1,1)"><path fill="none" stroke="#000000" d="M 167 543 L 170.68421052631578 479" stroke-miterlimit="10"/></g><g transform="translate(-46,-182) scale(1,1)"><path fill="#C0C0C0" stroke="none" d="M 505.527587890625 570.5 C 505.527587890625 564.1487248 510.676312690625 559 517.027587890625 559 C 523.378863090625 559 528.527587890625 564.1487248 528.527587890625 570.5 C 528.527587890625 576.8512752 523.378863090625 582 517.027587890625 582 C 510.676312690625 582 505.527587890625 576.8512752 505.527587890625 570.5 Z" opacity="0.2"/></g><g transform="translate(-46,-182) scale(1,1)"><path fill="none" stroke="#000000" d="M 520.285912696499 568.1429563482495 A 11.5 11.5 0 0 1 499.71408730350095 557.8570436517505" stroke-miterlimit="10"/></g><g transform="translate(-46,-182) scale(1,1)"><path fill="none" stroke="#000000" d="M 520.285912696499 557.8570436517505 A 11.5 11.5 0 0 1 499.71408730350095 568.1429563482495" stroke-miterlimit="10"/></g><g transform="translate(-46,-182) scale(1,1)"><path fill="none" stroke="#000000" d="M 510.5778853430551 574.4854711932198 A 11.5 11.5 0 0 1 509.4221146569449 551.5145288067802" stroke-miterlimit="10"/></g><g transform="translate(-46,-182) scale(1,1)"><path fill="#ffffff" stroke="none" d="M 501.527587890625 563.5 C 501.527587890625 558.8055792 505.333167090625 555 510.027587890625 555 C 514.722008690625 555 518.527587890625 558.8055792 518.527587890625 563.5 C 518.527587890625 568.1944208 514.722008690625 572 510.027587890625 572 C 505.333167090625 572 501.527587890625 568.1944208 501.527587890625 563.5 Z"/></g><g transform="translate(-46,-182) scale(1,1)"><path fill="none" stroke="#000000" d="M 501.527587890625 563.5 C 501.527587890625 558.8055792 505.333167090625 555 510.027587890625 555 C 514.722008690625 555 518.527587890625 558.8055792 518.527587890625 563.5 C 518.527587890625 568.1944208 514.722008690625 572 510.027587890625 572 C 505.333167090625 572 501.527587890625 568.1944208 501.527587890625 563.5 Z" stroke-miterlimit="10"/></g><g transform="translate(-46,-182) scale(1,1)"><g><path fill="none" stroke="none"/><text fill="#000000" stroke="none" font-family="Arial" font-size="13px" font-style="normal" font-weight="bold" text-decoration="none" x="367.67822265625" y="594.5">Real time values of varying mechanical quantities</text></g></g><g transform="translate(-46,-182) scale(1,1)"><path fill="none" stroke="#000000" d="M 541 485 L 518.25 552" stroke-miterlimit="10"/></g><g transform="translate(-46,-182) scale(1,1)"><path fill="none" stroke="#000000" d="M 415 703 L 504 575" stroke-miterlimit="10"/></g><g transform="translate(-46,-182) scale(1,1)"><path fill="none" stroke="#000000" d="M 581 671 L 516 575" stroke-miterlimit="10"/></g><g transform="translate(-46,-182) scale(1,1)"><path fill="#C0C0C0" stroke="none" d="M 717.128662109375 394.5 C 717.128662109375 388.1487248 722.277386909375 383 728.628662109375 383 C 734.979937309375 383 740.128662109375 388.1487248 740.128662109375 394.5 C 740.128662109375 400.8512752 734.979937309375 406 728.628662109375 406 C 722.277386909375 406 717.128662109375 400.8512752 717.128662109375 394.5 Z" opacity="0.2"/></g><g transform="translate(-46,-182) scale(1,1)"><path fill="none" stroke="#000000" d="M 727.0598061919093 396.77388095469234 A 11.5 11.5 0 1 1 714.9401938080907 377.22611904530766" stroke-miterlimit="10"/></g><g transform="translate(-46,-182) scale(1,1)"><path fill="#ffffff" stroke="none" d="M 713.128662109375 387.5 C 713.128662109375 382.8055792 716.934241309375 379 721.628662109375 379 C 726.323082909375 379 730.128662109375 382.8055792 730.128662109375 387.5 C 730.128662109375 392.1944208 726.323082909375 396 721.628662109375 396 C 716.934241309375 396 713.128662109375 392.1944208 713.128662109375 387.5 Z"/></g><g transform="translate(-46,-182) scale(1,1)"><path fill="none" stroke="#000000" d="M 713.128662109375 387.5 C 713.128662109375 382.8055792 716.934241309375 379 721.628662109375 379 C 726.323082909375 379 730.128662109375 382.8055792 730.128662109375 387.5 C 730.128662109375 392.1944208 726.323082909375 396 721.628662109375 396 C 716.934241309375 396 713.128662109375 392.1944208 713.128662109375 387.5 Z" stroke-miterlimit="10"/></g><g transform="translate(-46,-182) scale(1,1)"><g><path fill="none" stroke="none"/><text fill="#000000" stroke="none" font-family="Arial" font-size="13px" font-style="normal" font-weight="bold" text-decoration="none" x="680.8037109375" y="418.5">Motor position</text></g></g><g transform="translate(-46,-182) scale(1,1)"><path fill="none" stroke="#000000" d="M 826 333 L 733.128662109375 383.26810396634613" stroke-miterlimit="10"/></g><g transform="translate(-46,-182) scale(1,1)"><path fill="none" stroke="#000000" d="M 613 439 L 710.128662109375 393.7402294921875" stroke-miterlimit="10"/></g><g transform="translate(-46,-182) scale(1,1)"><path fill="#C0C0C0" stroke="none" d="M 414.17626953125 298.5 C 414.17626953125 292.1487248 419.32499433125 287 425.67626953125 287 C 432.02754473125 287 437.17626953125 292.1487248 437.17626953125 298.5 C 437.17626953125 304.8512752 432.02754473125 310 425.67626953125 310 C 419.32499433125 310 414.17626953125 304.8512752 414.17626953125 298.5 Z" opacity="0.2"/></g><g transform="translate(-46,-182) scale(1,1)"><path fill="none" stroke="#000000" d="M 416.65632565297494 302.42123194971305 A 11.5 11.5 0 1 1 419.34367434702506 279.57876805028695" stroke-miterlimit="10"/></g><g transform="translate(-46,-182) scale(1,1)"><path fill="#ffffff" stroke="none" d="M 410.17626953125 291.5 C 410.17626953125 286.8055792 413.98184873125 283 418.67626953125 283 C 423.37069033125 283 427.17626953125 286.8055792 427.17626953125 291.5 C 427.17626953125 296.1944208 423.37069033125 300 418.67626953125 300 C 413.98184873125 300 410.17626953125 296.1944208 410.17626953125 291.5 Z"/></g><g transform="translate(-46,-182) scale(1,1)"><path fill="none" stroke="#000000" d="M 410.17626953125 291.5 C 410.17626953125 286.8055792 413.98184873125 283 418.67626953125 283 C 423.37069033125 283 427.17626953125 286.8055792 427.17626953125 291.5 C 427.17626953125 296.1944208 423.37069033125 300 418.67626953125 300 C 413.98184873125 300 410.17626953125 296.1944208 410.17626953125 291.5 Z" stroke-miterlimit="10"/></g><g transform="translate(-46,-182) scale(1,1)"><g><path fill="none" stroke="none"/><text fill="#000000" stroke="none" font-family="Arial" font-size="13px" font-style="normal" font-weight="bold" text-decoration="none" x="316.063232421875" y="322.5">Real time load cell voltage readings</text></g></g><g transform="translate(-46,-182) scale(1,1)"><path fill="none" stroke="#000000" d="M 301 276 L 407.17626953125 289.7266199448529" stroke-miterlimit="10"/></g><g transform="translate(-46,-182) scale(1,1)"><path fill="none" stroke="#000000" d="M 492 237 L 430.17626953125 285.78159877232144" stroke-miterlimit="10"/></g><g transform="translate(-46,-182) scale(1,1)"><path fill="#C0C0C0" stroke="none" d="M 216.7626953125 690.5 C 216.7626953125 684.1487248 221.9114201125 679 228.2626953125 679 C 234.6139705125 679 239.7626953125 684.1487248 239.7626953125 690.5 C 239.7626953125 696.8512752 234.6139705125 702 228.2626953125 702 C 221.9114201125 702 216.7626953125 696.8512752 216.7626953125 690.5 Z" opacity="0.2"/></g><g transform="translate(-46,-182) scale(1,1)"><path fill="none" stroke="#000000" d="M 212.52272738769148 690.7708332279495 A 11.5 11.5 0 0 1 229.47727261230852 675.2291667720505" stroke-miterlimit="10"/></g><g transform="translate(-46,-182) scale(1,1)"><path fill="#ffffff" stroke="none" d="M 212.7626953125 683.5 C 212.7626953125 678.8055792 216.5682745125 675 221.2626953125 675 C 225.9571161125 675 229.7626953125 678.8055792 229.7626953125 683.5 C 229.7626953125 688.1944208 225.9571161125 692 221.2626953125 692 C 216.5682745125 692 212.7626953125 688.1944208 212.7626953125 683.5 Z"/></g><g transform="translate(-46,-182) scale(1,1)"><path fill="none" stroke="#000000" d="M 212.7626953125 683.5 C 212.7626953125 678.8055792 216.5682745125 675 221.2626953125 675 C 225.9571161125 675 229.7626953125 678.8055792 229.7626953125 683.5 C 229.7626953125 688.1944208 225.9571161125 692 221.2626953125 692 C 216.5682745125 692 212.7626953125 688.1944208 212.7626953125 683.5 Z" stroke-miterlimit="10"/></g><g transform="translate(-46,-182) scale(1,1)"><g><path fill="none" stroke="none"/><text fill="#000000" stroke="none" font-family="Arial" font-size="13px" font-style="normal" font-weight="bold" text-decoration="none" x="175.378662109375" y="714.5">Real time graph</text></g></g><g transform="translate(-46,-182) scale(1,1)"><path fill="none" stroke="#000000" d="M 343 717 L 232.7626953125 687.705078125" stroke-miterlimit="10"/></g><g transform="translate(-46,-182) scale(1,1)"><path fill="none" stroke="#000000" d="M 176 589 L 210.91666666666666 672" stroke-miterlimit="10"/></g><g transform="translate(-46,-182) scale(1,1)"><path fill="none" stroke="#000000" d="M 221 568 L 498.527587890625 563.5772282822327" stroke-miterlimit="10"/></g><g transform="translate(-46,-182) scale(1,1)"><path fill="#C0C0C0" stroke="none" d="M 358.7099609375 658.5 C 358.7099609375 652.1487248 363.8586857375 647 370.2099609375 647 C 376.5612361375 647 381.7099609375 652.1487248 381.7099609375 658.5 C 381.7099609375 664.8512752 376.5612361375 670 370.2099609375 670 C 363.8586857375 670 358.7099609375 664.8512752 358.7099609375 658.5 Z" opacity="0.2"/></g><g transform="translate(-46,-182) scale(1,1)"><path fill="none" stroke="#000000" d="M 361.41796373034106 662.3906611415441 A 11.5 11.5 0 0 1 364.58203626965894 639.6093388584559" stroke-miterlimit="10"/></g><g transform="translate(-46,-182) scale(1,1)"><path fill="#ffffff" stroke="none" d="M 354.7099609375 651.5 C 354.7099609375 646.8055792 358.5155401375 643 363.2099609375 643 C 367.9043817375 643 371.7099609375 646.8055792 371.7099609375 651.5 C 371.7099609375 656.1944208 367.9043817375 660 363.2099609375 660 C 358.5155401375 660 354.7099609375 656.1944208 354.7099609375 651.5 Z"/></g><g transform="translate(-46,-182) scale(1,1)"><path fill="none" stroke="#000000" d="M 354.7099609375 651.5 C 354.7099609375 646.8055792 358.5155401375 643 363.2099609375 643 C 367.9043817375 643 371.7099609375 646.8055792 371.7099609375 651.5 C 371.7099609375 656.1944208 367.9043817375 660 363.2099609375 660 C 358.5155401375 660 354.7099609375 656.1944208 354.7099609375 651.5 Z" stroke-miterlimit="10"/></g><g transform="translate(-46,-182) scale(1,1)"><g><path fill="none" stroke="none"/><text fill="#000000" stroke="none" font-family="Arial" font-size="13px" font-style="normal" font-weight="bold" text-decoration="none" x="352.736328125" y="682.5">File</text></g></g><g transform="translate(-46,-182) scale(1,1)"><path fill="none" stroke="#000000" d="M 543 687 L 374.7099609375 656.85498046875" stroke-miterlimit="10"/></g><g transform="translate(-46,-182) scale(1,1)"><path fill="none" stroke="#000000" d="M 212 589 L 351.7099609375 649.4319390190972" stroke-miterlimit="10"/></g><g transform="translate(-46,-182) scale(1,1)"><path fill="none" stroke="#000000" d="M 198 543 L 262.9473684210526 487" stroke-miterlimit="10"/></g><g transform="translate(-46,-182) scale(1,1)"><path fill="none" stroke="#000000" d="M 479 469 L 285.812255859375 476.3780965169271" stroke-miterlimit="10"/></g></g></svg>