<svg version="1.1" xmlns="http://www.w3.org/2000/svg" xmlns:xlink="http://www.w3.org/1999/xlink" width="543" height="495"><defs/><g><g transform="translate(5,5) scale(1,1)"><path fill="none" stroke="#000000" d="M 5 5 L 528 5 L 528 480 L 5 480 L 5 5" stroke-miterlimit="10"/></g><g transform="translate(5,5) scale(1,1)"><path fill="#ffffff" stroke="none" d="M 5 5 L 5 27 L 118.55078125 27 L 129.55078125 16 L 129.55078125 5 L 5 5"/></g><g transform="translate(5,5) scale(1,1)"><path fill="none" stroke="#000000" d="M 5 5 L 5 27 L 118.55078125 27 L 129.55078125 16 L 129.55078125 5 L 5 5 L 5 5" stroke-miterlimit="10"/></g><g transform="translate(5,5) scale(1,1)"><g><path fill="none" stroke="none"/><text fill="#000000" stroke="none" font-family="Arial" font-size="13px" font-style="normal" font-weight="normal" text-decoration="none" x="75.97900390625" y="22.5">Export</text></g></g><g transform="translate(5,5) scale(1,1)"><g><path fill="none" stroke="none"/><text fill="#000000" stroke="none" font-family="Arial" font-size="13px" font-style="normal" font-weight="bold" text-decoration="none" x="10" y="22.5">interaction</text></g></g><g transform="translate(5,5) scale(1,1)"><rect fill="#C0C0C0" stroke="none" x="135" y="47" width="71.736328125" height="39" opacity="0.2"/></g><g transform="translate(5,5) scale(1,1)"><rect fill="#ffffff" stroke="none" x="128" y="40" width="71.736328125" height="39"/></g><g transform="translate(5,5) scale(1,1)"><path fill="none" stroke="#000000" d="M 128 40 L 199.736328125 40 L 199.736328125 79 L 128 79 L 128 40 Z Z" stroke-miterlimit="10"/></g><g transform="translate(5,5) scale(1,1)"><g><path fill="none" stroke="none"/><text fill="#000000" stroke="none" font-family="Arial" font-size="13px" font-style="normal" font-weight="bold" text-decoration="none" x="149.7890625" y="59.5">UTM</text></g></g><g transform="translate(5,5) scale(1,1)"><path fill="none" stroke="#000000" d="M 164.5 80 L 164.5 462" stroke-miterlimit="10" stroke-dasharray="3"/></g><g transform="translate(5,5) scale(1,1)"><rect fill="#C0C0C0" stroke="none" x="343" y="47" width="71.736328125" height="39" opacity="0.2"/></g><g transform="translate(5,5) scale(1,1)"><rect fill="#ffffff" stroke="none" x="336" y="40" width="71.736328125" height="39"/></g><g transform="translate(5,5) scale(1,1)"><path fill="none" stroke="#000000" d="M 336 40 L 407.736328125 40 L 407.736328125 79 L 336 79 L 336 40 Z Z" stroke-miterlimit="10"/></g><g transform="translate(5,5) scale(1,1)"><g><path fill="none" stroke="none"/><text fill="#000000" stroke="none" font-family="Arial" font-size="13px" font-style="normal" font-weight="bold" text-decoration="none" x="353.082275390625" y="59.5">Export</text></g></g><g transform="translate(5,5) scale(1,1)"><path fill="none" stroke="#000000" d="M 372.5 80 L 372.5 438" stroke-miterlimit="10" stroke-dasharray="3"/></g><g transform="translate(5,5) scale(1,1)"><path fill="#000000" stroke="none" d="M 64 128.5 C 64 124.6340064 67.1340064 121.5 71 121.5 C 74.8659936 121.5 78 124.6340064 78 128.5 C 78 132.3659936 74.8659936 135.5 71 135.5 C 67.1340064 135.5 64 132.3659936 64 128.5 Z"/></g><g transform="translate(5,5) scale(1,1)"><path fill="#000000" stroke="none" d="M 64 207.5 C 64 203.6340064 67.1340064 200.5 71 200.5 C 74.8659936 200.5 78 203.6340064 78 207.5 C 78 211.3659936 74.8659936 214.5 71 214.5 C 67.1340064 214.5 64 211.3659936 64 207.5 Z"/></g><g transform="translate(5,5) scale(1,1)"><path fill="none" stroke="#000000" d="M 32 160 L 511 160 L 511 327 L 32 327 L 32 160" stroke-miterlimit="10"/></g><g transform="translate(5,5) scale(1,1)"><path fill="#ffffff" stroke="none" d="M 32 160 L 32 182 L 154.2216796875 182 L 165.2216796875 171 L 165.2216796875 160 L 32 160"/></g><g transform="translate(5,5) scale(1,1)"><path fill="none" stroke="#000000" d="M 32 160 L 32 182 L 154.2216796875 182 L 165.2216796875 171 L 165.2216796875 160 L 32 160 L 32 160" stroke-miterlimit="10"/></g><g transform="translate(5,5) scale(1,1)"><g><path fill="none" stroke="none"/><text fill="#000000" stroke="none" font-family="Arial" font-size="13px" font-style="normal" font-weight="normal" text-decoration="none" x="67.578125" y="177.5">Untill Finished</text></g></g><g transform="translate(5,5) scale(1,1)"><g><path fill="none" stroke="none"/><text fill="#000000" stroke="none" font-family="Arial" font-size="13px" font-style="normal" font-weight="bold" text-decoration="none" x="37" y="177.5">loop</text></g></g><g transform="translate(5,5) scale(1,1)"><path fill="#000000" stroke="none" d="M 16 375.5 C 16 371.6340064 19.1340064 368.5 23 368.5 C 26.8659936 368.5 30 371.6340064 30 375.5 C 30 379.3659936 26.8659936 382.5 23 382.5 C 19.1340064 382.5 16 379.3659936 16 375.5 Z"/></g><g transform="translate(5,5) scale(1,1)"><path fill="#000000" stroke="none" d="M 30 423.5 C 30 419.6340064 33.1340064 416.5 37 416.5 C 40.8659936 416.5 44 419.6340064 44 423.5 C 44 427.3659936 40.8659936 430.5 37 430.5 C 33.1340064 430.5 30 427.3659936 30 423.5 Z"/></g><g transform="translate(5,5) scale(1,1)"><path fill="none" stroke="#000000" d="M 78 129 L 157 129" stroke-miterlimit="10"/></g><g transform="translate(5,5) scale(1,1)"><path fill="#000000" stroke="none" d="M 146.83732514237585 133.209517756016 L 157 129 L 146.83732514237585 124.79048224398402"/></g><g transform="translate(5,5) scale(1,1)"><path fill="none" stroke="#000000" d="M 146.83732514237585 133.209517756016 L 157 129 L 146.83732514237585 124.79048224398402 L 146.83732514237585 133.209517756016" stroke-miterlimit="10"/></g><g transform="translate(5,5) scale(1,1)"><g><path fill="none" stroke="none"/><text fill="#000000" stroke="none" font-family="Arial" font-size="13px" font-style="normal" font-weight="normal" text-decoration="none" x="93.7626953125" y="125.5">1 : Start</text></g></g><g transform="translate(5,5) scale(1,1)"><rect fill="#ffffff" stroke="none" x="157" y="129" width="13" height="319"/></g><g transform="translate(5,5) scale(1,1)"><path fill="none" stroke="#000000" d="M 157 129 L 170 129 L 170 448 L 157 448 L 157 129 Z Z" stroke-miterlimit="10"/></g><g transform="translate(5,5) scale(1,1)"><path fill="none" stroke="#000000" d="M 170 144 L 365 144" stroke-miterlimit="10"/></g><g transform="translate(5,5) scale(1,1)"><path fill="#000000" stroke="none" d="M 354.83732514237585 148.209517756016 L 365 144 L 354.83732514237585 139.790482243984"/></g><g transform="translate(5,5) scale(1,1)"><path fill="none" stroke="#000000" d="M 354.83732514237585 148.209517756016 L 365 144 L 354.83732514237585 139.790482243984 L 354.83732514237585 148.209517756016" stroke-miterlimit="10"/></g><g transform="translate(5,5) scale(1,1)"><g><path fill="none" stroke="none"/><text fill="#000000" stroke="none" font-family="Arial" font-size="13px" font-style="normal" font-weight="normal" text-decoration="none" x="234.00634765625" y="140.5">2 : Initialise</text></g></g><g transform="translate(5,5) scale(1,1)"><rect fill="#ffffff" stroke="none" x="365" y="144" width="13" height="280"/></g><g transform="translate(5,5) scale(1,1)"><path fill="none" stroke="#000000" d="M 365 144 L 378 144 L 378 424 L 365 424 L 365 144 Z Z" stroke-miterlimit="10"/></g><g transform="translate(5,5) scale(1,1)"><path fill="none" stroke="#000000" d="M 78 208 L 164 208" stroke-miterlimit="10"/></g><g transform="translate(5,5) scale(1,1)"><path fill="#000000" stroke="none" d="M 153.83732514237585 212.209517756016 L 164 208 L 153.83732514237585 203.790482243984"/></g><g transform="translate(5,5) scale(1,1)"><path fill="none" stroke="#000000" d="M 153.83732514237585 212.209517756016 L 164 208 L 153.83732514237585 203.790482243984 L 153.83732514237585 212.209517756016" stroke-miterlimit="10"/></g><g transform="translate(5,5) scale(1,1)"><g><path fill="none" stroke="none"/><text fill="#000000" stroke="none" font-family="Arial" font-size="13px" font-style="normal" font-weight="normal" text-decoration="none" x="68.66455078125" y="195.5">3 : update(_)</text></g></g><g transform="translate(5,5) scale(1,1)"><rect fill="#ffffff" stroke="none" x="164" y="208" width="13" height="28"/></g><g transform="translate(5,5) scale(1,1)"><path fill="none" stroke="#000000" d="M 164 208 L 177 208 L 177 236 L 164 236 L 164 208 Z Z" stroke-miterlimit="10"/></g><g transform="translate(5,5) scale(1,1)"><path fill="none" stroke="#000000" d="M 177 216 L 372 216" stroke-miterlimit="10"/></g><g transform="translate(5,5) scale(1,1)"><path fill="#000000" stroke="none" d="M 361.83732514237585 220.209517756016 L 372 216 L 361.83732514237585 211.790482243984"/></g><g transform="translate(5,5) scale(1,1)"><path fill="none" stroke="#000000" d="M 361.83732514237585 220.209517756016 L 372 216 L 361.83732514237585 211.790482243984 L 361.83732514237585 220.209517756016" stroke-miterlimit="10"/></g><g transform="translate(5,5) scale(1,1)"><g><path fill="none" stroke="none"/><text fill="#000000" stroke="none" font-family="Arial" font-size="13px" font-style="normal" font-weight="normal" text-decoration="none" x="234.5" y="212.5">4 : write(data)</text></g></g><g transform="translate(5,5) scale(1,1)"><rect fill="#ffffff" stroke="none" x="372" y="216" width="13" height="28"/></g><g transform="translate(5,5) scale(1,1)"><path fill="none" stroke="#000000" d="M 372 216 L 385 216 L 385 244 L 372 244 L 372 216 Z Z" stroke-miterlimit="10"/></g><g transform="translate(5,5) scale(1,1)"><path fill="none" stroke="#000000" d="M 30 376 L 164 376" stroke-miterlimit="10"/></g><g transform="translate(5,5) scale(1,1)"><path fill="#000000" stroke="none" d="M 153.83732514237585 380.209517756016 L 164 376 L 153.83732514237585 371.790482243984"/></g><g transform="translate(5,5) scale(1,1)"><path fill="none" stroke="#000000" d="M 153.83732514237585 380.209517756016 L 164 376 L 153.83732514237585 371.790482243984 L 153.83732514237585 380.209517756016" stroke-miterlimit="10"/></g><g transform="translate(5,5) scale(1,1)"><g><path fill="none" stroke="none"/><text fill="#000000" stroke="none" font-family="Arial" font-size="13px" font-style="normal" font-weight="normal" text-decoration="none" x="22.75" y="363.5">5 : Export button pressed</text></g></g><g transform="translate(5,5) scale(1,1)"><rect fill="#ffffff" stroke="none" x="164" y="376" width="13" height="56"/></g><g transform="translate(5,5) scale(1,1)"><path fill="none" stroke="#000000" d="M 164 376 L 177 376 L 177 432 L 164 432 L 164 376 Z Z" stroke-miterlimit="10"/></g><g transform="translate(5,5) scale(1,1)"><path fill="none" stroke="#000000" d="M 177 392 L 372 392" stroke-miterlimit="10"/></g><g transform="translate(5,5) scale(1,1)"><path fill="#000000" stroke="none" d="M 361.83732514237585 396.209517756016 L 372 392 L 361.83732514237585 387.790482243984"/></g><g transform="translate(5,5) scale(1,1)"><path fill="none" stroke="#000000" d="M 361.83732514237585 396.209517756016 L 372 392 L 361.83732514237585 387.790482243984 L 361.83732514237585 396.209517756016" stroke-miterlimit="10"/></g><g transform="translate(5,5) scale(1,1)"><g><path fill="none" stroke="none"/><text fill="#000000" stroke="none" font-family="Arial" font-size="13px" font-style="normal" font-weight="normal" text-decoration="none" x="219.668701171875" y="388.5">6 : finish_export(_)</text></g></g><g transform="translate(5,5) scale(1,1)"><rect fill="#ffffff" stroke="none" x="372" y="392" width="13" height="28"/></g><g transform="translate(5,5) scale(1,1)"><path fill="none" stroke="#000000" d="M 372 392 L 385 392 L 385 420 L 372 420 L 372 392 Z Z" stroke-miterlimit="10"/></g><g transform="translate(5,5) scale(1,1)"><path fill="none" stroke="#000000" d="M 372 408 L 177 408" stroke-miterlimit="10" stroke-dasharray="3"/></g><g transform="translate(5,5) scale(1,1)"><path fill="none" stroke="#000000" d="M 187.16267485762415 403.790482243984 L 177 408 L 187.16267485762415 412.209517756016" stroke-miterlimit="10"/></g><g transform="translate(5,5) scale(1,1)"><g><path fill="none" stroke="none"/><text fill="#000000" stroke="none" font-family="Arial" font-size="13px" font-style="normal" font-weight="normal" text-decoration="none" x="238.675048828125" y="424.5">7 : FIle path</text></g></g><g transform="translate(5,5) scale(1,1)"><path fill="none" stroke="#000000" d="M 164 424 L 44 424" stroke-miterlimit="10"/></g><g transform="translate(5,5) scale(1,1)"><path fill="#000000" stroke="none" d="M 54.162674857624154 419.790482243984 L 44 424 L 54.162674857624154 428.209517756016"/></g><g transform="translate(5,5) scale(1,1)"><path fill="none" stroke="#000000" d="M 54.162674857624154 419.790482243984 L 44 424 L 54.162674857624154 428.209517756016 L 54.162674857624154 419.790482243984" stroke-miterlimit="10"/></g><g transform="translate(5,5) scale(1,1)"><g><path fill="none" stroke="none"/><text fill="#000000" stroke="none" font-family="Arial" font-size="13px" font-style="normal" font-weight="normal" text-decoration="none" x="19.5" y="444.5">8 : File Output to User</text></g></g></g></svg>