<svg version="1.1" xmlns="http://www.w3.org/2000/svg" xmlns:xlink="http://www.w3.org/1999/xlink" width="793.47900390625" height="340"><defs/><g><g transform="translate(-30,-62) scale(1,1)"><rect fill="#C0C0C0" stroke="none" x="223" y="79" width="352" height="320" opacity="0.2"/></g><g transform="translate(-30,-62) scale(1,1)"><rect fill="#ffffff" stroke="none" x="216" y="72" width="352" height="320"/></g><g transform="translate(-30,-62) scale(1,1)"><path fill="none" stroke="#000000" d="M 216 72 L 568 72 L 568 392 L 216 392 L 216 72 Z Z" stroke-miterlimit="10"/></g><g transform="translate(-30,-62) scale(1,1)"><g><path fill="none" stroke="none"/><text fill="#000000" stroke="none" font-family="Arial" font-size="13px" font-style="normal" font-weight="bold" text-decoration="none" x="270.607421875" y="91.5">Use case diagram for software on Arduino</text></g></g><g transform="translate(-30,-62) scale(1,1)"><path fill="#C0C0C0" stroke="none" d="M 335 152 C 335 142.6111584 364.9969184 135 402 135 C 439.0030816 135 469 142.6111584 469 152 C 469 161.3888416 439.0030816 169 402 169 C 364.9969184 169 335 161.3888416 335 152 Z" opacity="0.2"/></g><g transform="translate(-30,-62) scale(1,1)"><path fill="#ffffff" stroke="none" d="M 328 145 C 328 135.6111584 357.9969184 128 395 128 C 432.0030816 128 462 135.6111584 462 145 C 462 154.3888416 432.0030816 162 395 162 C 357.9969184 162 328 154.3888416 328 145 Z"/></g><g transform="translate(-30,-62) scale(1,1)"><path fill="none" stroke="#000000" d="M 328 145 C 328 135.6111584 357.9969184 128 395 128 C 432.0030816 128 462 135.6111584 462 145 C 462 154.3888416 432.0030816 162 395 162 C 357.9969184 162 328 154.3888416 328 145 Z" stroke-miterlimit="10"/></g><g transform="translate(-30,-62) scale(1,1)"><g><path fill="none" stroke="none"/><text fill="#000000" stroke="none" font-family="Arial" font-size="13px" font-style="normal" font-weight="bold" text-decoration="none" x="355.62548828125" y="152">Control Motor</text></g></g><g transform="translate(-30,-62) scale(1,1)"><path fill="#C0C0C0" stroke="none" d="M 239 280 C 239 270.6111584 316.0070144 263 411 263 C 505.9929856 263 583 270.6111584 583 280 C 583 289.3888416 505.9929856 297 411 297 C 316.0070144 297 239 289.3888416 239 280 Z" opacity="0.2"/></g><g transform="translate(-30,-62) scale(1,1)"><path fill="#ffffff" stroke="none" d="M 232 273 C 232 263.6111584 309.0070144 256 404 256 C 498.9929856 256 576 263.6111584 576 273 C 576 282.3888416 498.9929856 290 404 290 C 309.0070144 290 232 282.3888416 232 273 Z"/></g><g transform="translate(-30,-62) scale(1,1)"><path fill="none" stroke="#000000" d="M 232 273 C 232 263.6111584 309.0070144 256 404 256 C 498.9929856 256 576 263.6111584 576 273 C 576 282.3888416 498.9929856 290 404 290 C 309.0070144 290 232 282.3888416 232 273 Z" stroke-miterlimit="10"/></g><g transform="translate(-30,-62) scale(1,1)"><g><path fill="none" stroke="none"/><text fill="#000000" stroke="none" font-family="Arial" font-size="13px" font-style="normal" font-weight="bold" text-decoration="none" x="295.6201171875" y="280">Transmit voltage readings in real time</text></g></g><g transform="translate(-30,-62) scale(1,1)"><path fill="#C0C0C0" stroke="none" d="M 271 368 C 271 358.6111584 334.12784320000003 351 412 351 C 489.87215679999997 351 553 358.6111584 553 368 C 553 377.3888416 489.87215679999997 385 412 385 C 334.12784320000003 385 271 377.3888416 271 368 Z" opacity="0.2"/></g><g transform="translate(-30,-62) scale(1,1)"><path fill="#ffffff" stroke="none" d="M 264 361 C 264 351.6111584 327.12784320000003 344 405 344 C 482.87215679999997 344 546 351.6111584 546 361 C 546 370.3888416 482.87215679999997 378 405 378 C 327.12784320000003 378 264 370.3888416 264 361 Z"/></g><g transform="translate(-30,-62) scale(1,1)"><path fill="none" stroke="#000000" d="M 264 361 C 264 351.6111584 327.12784320000003 344 405 344 C 482.87215679999997 344 546 351.6111584 546 361 C 546 370.3888416 482.87215679999997 378 405 378 C 327.12784320000003 378 264 370.3888416 264 361 Z" stroke-miterlimit="10"/></g><g transform="translate(-30,-62) scale(1,1)"><g><path fill="none" stroke="none"/><text fill="#000000" stroke="none" font-family="Arial" font-size="13px" font-style="normal" font-weight="bold" text-decoration="none" x="317.19287109375" y="368">Smoothing of voltage readings</text></g></g><g transform="translate(-30,-62) scale(1,1)"><path fill="none" stroke="#000000" d="M 404 291 L 405 343" stroke-miterlimit="10" stroke-dasharray="3"/></g><g transform="translate(-30,-62) scale(1,1)"><path fill="none" stroke="#000000" d="M 400.59586048865975 332.92014111385225 L 405 343 L 409.0133396580382 332.7582665144411" stroke-miterlimit="10"/></g><g transform="translate(-30,-62) scale(1,1)"><g><path fill="none" stroke="none"/><text fill="#000000" stroke="none" font-family="Arial" font-size="13px" font-style="normal" font-weight="normal" text-decoration="none" x="405.5" y="321.5">«include»</text></g></g><g transform="translate(-30,-62) scale(1,1)"><path fill="#ffffff" stroke="none" d="M 83.85344211647727 185.68 C 83.85344211647727 180.886167936 87.73928444142273 177 92.53271484375 177 C 97.32614524607727 177 101.21198757102273 180.886167936 101.21198757102273 185.68 C 101.21198757102273 190.47383206400002 97.32614524607727 194.36 92.53271484375 194.36 C 87.73928444142273 194.36 83.85344211647727 190.47383206400002 83.85344211647727 185.68 Z"/></g><g transform="translate(-30,-62) scale(1,1)"><path fill="none" stroke="#000000" d="M 83.85344211647727 185.68 C 83.85344211647727 180.886167936 87.73928444142273 177 92.53271484375 177 C 97.32614524607727 177 101.21198757102273 180.886167936 101.21198757102273 185.68 C 101.21198757102273 190.47383206400002 97.32614524607727 194.36 92.53271484375 194.36 C 87.73928444142273 194.36 83.85344211647727 190.47383206400002 83.85344211647727 185.68 Z" stroke-miterlimit="10"/></g><g transform="translate(-30,-62) scale(1,1)"><path fill="none" stroke="#000000" d="M 92.53271484375 194.36 L 92.53271484375 211.64" stroke-miterlimit="10"/></g><g transform="translate(-30,-62) scale(1,1)"><path fill="none" stroke="#000000" d="M 83.34289666193182 200.84 L 101.72253302556818 200.84" stroke-miterlimit="10"/></g><g transform="translate(-30,-62) scale(1,1)"><path fill="none" stroke="#000000" d="M 92.53271484375 211.64 L 79.76907848011363 229" stroke-miterlimit="10"/></g><g transform="translate(-30,-62) scale(1,1)"><path fill="none" stroke="#000000" d="M 92.53271484375 211.64 L 105.29635120738637 229" stroke-miterlimit="10"/></g><g transform="translate(-30,-62) scale(1,1)"><g><path fill="none" stroke="none"/><text fill="#000000" stroke="none" font-family="Arial" font-size="13px" font-style="normal" font-weight="bold" text-decoration="none" x="47.010498046875" y="249.5">Software on PC</text></g></g><g transform="translate(-30,-62) scale(1,1)"><path fill="none" stroke="#000000" d="M 146 203 L 327 161" stroke-miterlimit="10"/></g><g transform="translate(-30,-62) scale(1,1)"><g><path fill="none" stroke="none"/><text fill="#000000" stroke="none" font-family="Arial" font-size="13px" font-style="normal" font-weight="normal" text-decoration="none" x="135.5" y="171.5">+Send instructions</text></g></g><g transform="translate(-30,-62) scale(1,1)"><path fill="none" stroke="#000000" d="M 146 225 L 307 255" stroke-miterlimit="10"/></g><g transform="translate(-30,-62) scale(1,1)"><g><path fill="none" stroke="none"/><text fill="#000000" stroke="none" font-family="Arial" font-size="13px" font-style="normal" font-weight="normal" text-decoration="none" x="95.5" y="258.5">+Receive voltage readings</text></g></g><g transform="translate(-30,-62) scale(1,1)"><path fill="#ffffff" stroke="none" d="M 685.6530026633523 121.68 C 685.6530026633523 116.886167936 689.5388449882977 113 694.332275390625 113 C 699.1257057929523 113 703.0115481178977 116.886167936 703.0115481178977 121.68 C 703.0115481178977 126.473832064 699.1257057929523 130.36 694.332275390625 130.36 C 689.5388449882977 130.36 685.6530026633523 126.473832064 685.6530026633523 121.68 Z"/></g><g transform="translate(-30,-62) scale(1,1)"><path fill="none" stroke="#000000" d="M 685.6530026633523 121.68 C 685.6530026633523 116.886167936 689.5388449882977 113 694.332275390625 113 C 699.1257057929523 113 703.0115481178977 116.886167936 703.0115481178977 121.68 C 703.0115481178977 126.473832064 699.1257057929523 130.36 694.332275390625 130.36 C 689.5388449882977 130.36 685.6530026633523 126.473832064 685.6530026633523 121.68 Z" stroke-miterlimit="10"/></g><g transform="translate(-30,-62) scale(1,1)"><path fill="none" stroke="#000000" d="M 694.332275390625 130.36 L 694.332275390625 147.64" stroke-miterlimit="10"/></g><g transform="translate(-30,-62) scale(1,1)"><path fill="none" stroke="#000000" d="M 685.1424572088068 136.84 L 703.5220935724432 136.84" stroke-miterlimit="10"/></g><g transform="translate(-30,-62) scale(1,1)"><path fill="none" stroke="#000000" d="M 694.332275390625 147.64 L 681.5686390269886 165" stroke-miterlimit="10"/></g><g transform="translate(-30,-62) scale(1,1)"><path fill="none" stroke="#000000" d="M 694.332275390625 147.64 L 707.0959117542614 165" stroke-miterlimit="10"/></g><g transform="translate(-30,-62) scale(1,1)"><g><path fill="none" stroke="none"/><text fill="#000000" stroke="none" font-family="Arial" font-size="13px" font-style="normal" font-weight="bold" text-decoration="none" x="649.17822265625" y="185.5">Motor controller</text></g></g><g transform="translate(-30,-62) scale(1,1)"><path fill="#ffffff" stroke="none" d="M 722.0602292258523 249.68 C 722.0602292258523 244.886167936 725.9460715507977 241 730.739501953125 241 C 735.5329323554523 241 739.4187746803977 244.886167936 739.4187746803977 249.68 C 739.4187746803977 254.47383206400002 735.5329323554523 258.36 730.739501953125 258.36 C 725.9460715507977 258.36 722.0602292258523 254.47383206400002 722.0602292258523 249.68 Z"/></g><g transform="translate(-30,-62) scale(1,1)"><path fill="none" stroke="#000000" d="M 722.0602292258523 249.68 C 722.0602292258523 244.886167936 725.9460715507977 241 730.739501953125 241 C 735.5329323554523 241 739.4187746803977 244.886167936 739.4187746803977 249.68 C 739.4187746803977 254.47383206400002 735.5329323554523 258.36 730.739501953125 258.36 C 725.9460715507977 258.36 722.0602292258523 254.47383206400002 722.0602292258523 249.68 Z" stroke-miterlimit="10"/></g><g transform="translate(-30,-62) scale(1,1)"><path fill="none" stroke="#000000" d="M 730.739501953125 258.36 L 730.739501953125 275.64" stroke-miterlimit="10"/></g><g transform="translate(-30,-62) scale(1,1)"><path fill="none" stroke="#000000" d="M 721.5496837713068 264.84 L 739.9293201349432 264.84" stroke-miterlimit="10"/></g><g transform="translate(-30,-62) scale(1,1)"><path fill="none" stroke="#000000" d="M 730.739501953125 275.64 L 717.9758655894886 293" stroke-miterlimit="10"/></g><g transform="translate(-30,-62) scale(1,1)"><path fill="none" stroke="#000000" d="M 730.739501953125 275.64 L 743.5031383167614 293" stroke-miterlimit="10"/></g><g transform="translate(-30,-62) scale(1,1)"><g><path fill="none" stroke="none"/><text fill="#000000" stroke="none" font-family="Arial" font-size="13px" font-style="normal" font-weight="bold" text-decoration="none" x="666.42822265625" y="313.5">Amplifier connected to</text><text fill="#000000" stroke="none" font-family="Arial" font-size="13px" font-style="normal" font-weight="bold" text-decoration="none" x="706.891357421875" y="326.5">load cell</text></g></g><g transform="translate(-30,-62) scale(1,1)"><path fill="none" stroke="#000000" d="M 577 280 L 647 283" stroke-miterlimit="10"/></g><g transform="translate(-30,-62) scale(1,1)"><g><path fill="none" stroke="none"/><text fill="#000000" stroke="none" font-family="Arial" font-size="13px" font-style="normal" font-weight="normal" text-decoration="none" x="578.5" y="264.5">+Send amplified voltage</text></g></g><g transform="translate(-30,-62) scale(1,1)"><path fill="none" stroke="#000000" d="M 463 146 L 639 150" stroke-miterlimit="10"/></g><g transform="translate(-30,-62) scale(1,1)"><g><path fill="none" stroke="none"/><text fill="#000000" stroke="none" font-family="Arial" font-size="13px" font-style="normal" font-weight="normal" text-decoration="none" x="518.5" y="124.5">+Receive analog voltage</text></g></g><g transform="translate(-30,-62) scale(1,1)"><path fill="#C0C0C0" stroke="none" d="M 287 232 C 287 222.6111584 337.1441024 215 399 215 C 460.8558976 215 511 222.6111584 511 232 C 511 241.3888416 460.8558976 249 399 249 C 337.1441024 249 287 241.3888416 287 232 Z" opacity="0.2"/></g><g transform="translate(-30,-62) scale(1,1)"><path fill="#ffffff" stroke="none" d="M 280 225 C 280 215.6111584 330.1441024 208 392 208 C 453.8558976 208 504 215.6111584 504 225 C 504 234.3888416 453.8558976 242 392 242 C 330.1441024 242 280 234.3888416 280 225 Z"/></g><g transform="translate(-30,-62) scale(1,1)"><path fill="none" stroke="#000000" d="M 280 225 C 280 215.6111584 330.1441024 208 392 208 C 453.8558976 208 504 215.6111584 504 225 C 504 234.3888416 453.8558976 242 392 242 C 330.1441024 242 280 234.3888416 280 225 Z" stroke-miterlimit="10"/></g><g transform="translate(-30,-62) scale(1,1)"><g><path fill="none" stroke="none"/><text fill="#000000" stroke="none" font-family="Arial" font-size="13px" font-style="normal" font-weight="bold" text-decoration="none" x="322.985107421875" y="232">Phase width modulation</text></g></g><g transform="translate(-30,-62) scale(1,1)"><path fill="none" stroke="#000000" d="M 394 163 L 393 207" stroke-miterlimit="10" stroke-dasharray="3"/></g><g transform="translate(-30,-62) scale(1,1)"><path fill="none" stroke="#000000" d="M 389.0224792467554 196.74430262451605 L 393 207 L 397.43934126307227 196.9355949430687" stroke-miterlimit="10"/></g><g transform="translate(-30,-62) scale(1,1)"><g><path fill="none" stroke="none"/><text fill="#000000" stroke="none" font-family="Arial" font-size="13px" font-style="normal" font-weight="normal" text-decoration="none" x="394.5" y="190.5">«include»</text></g></g></g></svg>